<svg xmlns="http://www.w3.org/2000/svg" version="1.0" width="375.000000pt" height="666.000000pt" viewBox="0 0 375.000000 666.000000" preserveAspectRatio="xMidYMid meet">

<g transform="translate(0.000000,666.000000) scale(0.100000,-0.100000)" fill="#7367c8" stroke="none">
<path d="M2233 6640 c-170 -9 -206 -14 -343 -45 -58 -13 -139 -31 -180 -40 -187 -41 -483 -157 -600 -235 -30 -21 -79 -49 -108 -64 -191 -96 -437 -308 -614 -526 -143 -176 -308 -510 -355 -720 -20 -93 -29 -373 -13 -452 11 -57 49 -147 96 -225 10 -17 36 -60 56 -95 49 -85 140 -183 271 -289 124 -102 173 -132 427 -260 280 -140 460 -250 633 -383 232 -180 309 -297 413 -631 36 -115 38 -126 38 -265 1 -239 -22 -288 -256 -540 -223 -241 -346 -378 -368 -410 -13 -19 -63 -82 -110 -140 -47 -58 -97 -121 -111 -140 -15 -19 -43 -53 -63 -75 -21 -22 -44 -54 -51 -72 -7 -17 -25 -44 -39 -61 -15 -16 -42 -60 -60 -98 -18 -38 -40 -75 -49 -82 -9 -8 -28 -35 -43 -60 -15 -26 -47 -71 -71 -100 -24 -30 -43 -57 -43 -61 0 -4 -44 -53 -98 -108 -54 -55 -118 -123 -143 -151 -26 -28 -68 -67 -95 -87 -73 -54 -144 -134 -144 -161 0 -13 9 -28 19 -34 39 -20 69 -11 125 39 31 26 75 61 99 77 23 16 68 54 100 84 96 92 258 175 420 217 56 14 119 34 139 44 21 11 44 19 52 19 30 0 223 141 296 216 41 42 108 101 147 131 96 71 136 109 235 224 46 53 115 132 153 176 39 44 93 106 121 139 68 78 336 349 399 403 28 24 88 77 134 119 46 42 100 89 120 105 95 75 467 437 597 580 132 147 181 227 260 419 70 171 92 250 99 351 8 110 -4 192 -39 267 -71 151 -137 232 -397 490 -239 237 -360 381 -490 580 -120 183 -150 268 -170 482 -9 100 -8 115 15 214 28 115 73 217 139 315 103 154 221 308 275 361 42 41 73 84 107 150 76 147 65 216 -46 287 -31 20 -67 44 -80 53 -32 23 -157 44 -369 63 -183 16 -207 16 -437 5z m542 -351 c11 -35 -3 -66 -66 -141 -105 -124 -147 -200 -185 -331 -14 -49 -37 -113 -50 -142 -14 -29 -32 -86 -40 -127 -8 -40 -25 -109 -36 -153 -17 -67 -20 -97 -14 -181 22 -344 98 -513 404 -904 91 -116 173 -205 326 -353 214 -206 286 -290 338 -394 30 -61 30 -66 26 -165 -5 -94 -9 -114 -55 -228 -88 -220 -122 -275 -252 -416 -31 -33 -84 -92 -118 -130 -83 -93 -278 -289 -404 -404 -214 -198 -404 -388 -463 -465 -33 -44 -92 -116 -131 -160 -39 -44 -88 -105 -110 -135 -22 -30 -103 -134 -181 -231 -130 -160 -197 -229 -223 -229 -5 0 -23 -11 -38 -24 -16 -14 -55 -38 -86 -54 -32 -17 -82 -49 -113 -72 -30 -22 -78 -53 -107 -67 -29 -14 -78 -44 -111 -66 -46 -31 -60 -36 -67 -26 -12 19 -11 30 6 80 19 54 44 81 165 177 134 107 262 231 350 337 41 50 110 127 154 170 124 126 268 285 314 348 80 107 149 263 178 400 35 166 5 425 -71 617 -8 19 -26 67 -41 105 -28 73 -93 194 -149 280 -104 158 -342 368 -544 481 -18 10 -41 24 -50 29 -77 49 -184 108 -308 171 -120 61 -160 86 -211 137 -124 122 -228 321 -262 497 -14 71 -14 454 0 551 12 84 95 265 177 385 97 144 271 311 396 383 25 14 83 48 128 74 158 91 395 180 524 197 39 5 131 25 206 44 75 19 186 42 245 51 60 9 127 20 149 25 22 5 83 16 135 24 52 9 129 24 170 35 41 11 78 20 82 20 4 1 10 -8 13 -20z" fill="#7367c8"/>
<path d="M1705 5697 c-225 -75 -336 -278 -271 -494 54 -177 248 -297 426 -263 132 25 235 105 292 226 27 57 30 76 31 154 0 83 -2 95 -37 165 -65 132 -188 214 -331 221 -41 2 -87 -2 -110 -9z m85 -306 c34 -24 68 -76 76 -117 4 -24 -1 -48 -19 -87 -20 -44 -33 -58 -69 -76 -59 -28 -102 -27 -156 5 -72 42 -99 123 -66 201 37 90 157 127 234 74z" fill="#7367c8"/>
</g>
</svg>