<svg xmlns="http://www.w3.org/2000/svg" version="1.0" width="1442.000000pt" height="495.000000pt" viewBox="0 0 1442.000000 495.000000" preserveAspectRatio="xMidYMid meet">

<g transform="translate(0.000000,495.000000) scale(0.100000,-0.100000)" fill="#ed6e01" stroke="none">
<path d="M1400 4880 c-223 -8 -409 -28 -495 -54 -27 -8 -81 -20 -120 -26 -203 -32 -505 -180 -505 -247 0 -17 1 -17 107 21 85 31 336 74 478 82 85 6 110 3 167 -14 147 -46 294 -153 380 -276 23 -34 65 -88 94 -121 28 -33 91 -114 139 -180 48 -66 112 -149 141 -185 66 -82 225 -398 259 -516 58 -200 76 -411 64 -729 -24 -592 -67 -790 -263 -1202 -175 -368 -237 -475 -337 -588 -30 -33 -107 -123 -171 -200 -241 -287 -358 -354 -618 -355 -142 0 -250 21 -442 85 -90 29 -164 52 -166 51 -3 -4 65 -47 141 -90 26 -15 87 -42 135 -61 48 -18 123 -47 166 -64 43 -16 136 -45 205 -63 121 -32 134 -33 316 -33 105 0 235 6 290 12 55 7 161 20 235 28 131 14 292 35 434 55 136 20 330 125 405 221 21 26 54 76 74 111 19 35 71 108 115 163 44 55 115 155 157 222 42 68 85 129 95 136 10 7 52 51 94 99 81 92 177 160 274 192 29 10 72 29 95 42 28 15 84 30 162 43 147 24 232 17 440 -34 118 -29 293 -64 455 -91 52 -8 338 -108 470 -163 63 -27 149 -60 190 -74 291 -100 668 -247 830 -325 69 -34 258 -111 420 -173 162 -61 354 -138 425 -171 325 -151 502 -212 821 -283 294 -66 360 -75 614 -82 329 -9 590 17 853 82 344 87 709 209 962 322 55 25 174 75 265 113 91 37 206 85 255 107 50 22 137 59 195 83 58 23 137 57 177 76 93 44 218 86 379 126 126 32 134 32 349 32 l220 0 204 -58 c113 -31 243 -72 290 -91 101 -39 159 -58 221 -75 65 -17 321 -119 350 -140 14 -9 63 -30 110 -45 47 -15 105 -40 130 -56 25 -15 86 -47 135 -70 50 -23 122 -62 162 -86 40 -25 118 -64 175 -88 57 -25 151 -69 211 -99 59 -29 110 -50 113 -45 6 10 -82 100 -196 200 -41 36 -122 108 -180 159 -58 51 -122 104 -143 117 -22 13 -71 52 -110 85 -40 33 -107 85 -149 115 -112 79 -166 130 -233 223 -99 138 -105 155 -105 289 0 204 24 376 71 514 87 259 205 451 329 535 36 24 100 74 143 110 43 37 102 83 131 102 29 19 95 63 147 98 52 35 154 93 226 129 73 35 135 68 138 73 3 4 53 29 111 54 89 39 224 118 224 130 0 6 -170 -49 -267 -87 -97 -38 -374 -119 -483 -143 -36 -7 -104 -14 -152 -14 -47 0 -131 -9 -185 -19 -173 -34 -295 -44 -501 -39 -312 8 -470 50 -772 208 -96 50 -234 120 -307 155 -73 35 -178 91 -235 126 -57 34 -197 111 -312 171 -114 60 -243 132 -285 160 -186 127 -262 174 -424 267 -318 182 -458 246 -817 376 -447 162 -626 197 -1030 199 -217 1 -242 -1 -330 -23 -148 -37 -436 -138 -525 -183 -44 -23 -170 -87 -280 -142 -410 -208 -646 -371 -843 -584 -53 -58 -137 -135 -187 -172 -49 -37 -139 -109 -200 -160 -125 -106 -175 -140 -295 -200 -47 -23 -155 -83 -240 -133 -85 -50 -185 -104 -222 -119 -106 -45 -718 -198 -928 -234 -110 -18 -144 -18 -183 2 -35 19 -242 177 -326 251 -51 45 -240 250 -329 356 -50 61 -217 311 -352 528 -52 84 -111 172 -130 195 -19 23 -75 96 -124 162 -125 171 -481 530 -626 632 -58 41 -132 94 -165 118 -87 64 -139 88 -278 126 -149 41 -265 48 -597 36z m409 -343 c70 -23 258 -131 362 -208 78 -57 123 -109 242 -274 48 -66 120 -156 160 -201 142 -159 506 -629 634 -819 66 -98 123 -166 235 -281 81 -83 176 -171 209 -195 34 -24 125 -93 202 -153 238 -184 312 -230 457 -279 111 -38 199 -50 319 -45 105 5 108 6 325 93 240 95 517 224 591 275 25 18 92 54 148 80 56 26 113 58 127 70 14 12 52 36 85 52 33 17 111 66 173 109 62 44 117 79 121 79 5 0 40 24 77 53 38 29 148 107 244 172 96 65 198 135 225 156 28 21 77 53 110 71 65 37 249 178 385 296 147 127 349 226 565 277 57 14 167 43 244 64 182 52 315 71 487 71 230 0 393 -25 736 -111 293 -73 463 -142 812 -333 83 -45 191 -104 241 -131 49 -27 157 -94 241 -150 83 -56 231 -146 330 -200 98 -54 229 -126 289 -160 161 -91 313 -166 529 -259 333 -145 517 -205 721 -237 87 -14 422 -18 469 -5 l30 7 -25 -30 c-164 -201 -186 -239 -281 -476 -78 -194 -103 -332 -103 -580 0 -152 2 -176 23 -230 12 -32 22 -60 22 -61 0 0 -53 18 -118 42 -65 24 -172 59 -238 79 -65 20 -168 56 -229 81 -160 66 -216 81 -347 93 -126 12 -251 3 -363 -25 -126 -32 -284 -88 -379 -136 l-100 -50 -60 17 c-125 33 -223 68 -288 102 -85 44 -203 145 -271 230 -29 36 -78 94 -109 128 -60 66 -118 174 -210 388 -28 65 -52 116 -54 115 -1 -2 8 -46 21 -98 13 -52 34 -151 46 -220 38 -215 64 -295 125 -386 58 -88 182 -211 274 -274 32 -22 106 -58 165 -82 97 -37 105 -43 84 -52 -13 -5 -89 -40 -169 -77 -80 -37 -208 -92 -285 -123 -77 -30 -218 -86 -313 -125 -210 -86 -311 -118 -557 -181 -358 -91 -581 -116 -975 -107 -252 5 -284 10 -565 75 -220 52 -389 107 -600 197 -93 39 -235 97 -315 128 -251 97 -440 173 -604 241 -170 71 -589 218 -671 236 -27 6 -131 37 -230 70 -99 32 -216 66 -260 75 -43 9 -84 20 -90 24 -5 5 -37 14 -70 21 -33 7 -100 25 -150 41 -49 15 -153 44 -229 64 -77 20 -160 45 -185 55 -66 28 -232 65 -406 90 -118 18 -173 21 -258 16 -193 -12 -393 -62 -468 -119 -24 -18 -62 -44 -84 -57 -154 -90 -273 -213 -447 -456 -59 -82 -136 -183 -173 -224 -37 -41 -91 -111 -120 -156 -61 -92 -130 -146 -210 -165 -27 -6 -92 -25 -143 -42 -90 -29 -97 -30 -168 -19 -41 7 -90 20 -109 29 l-33 18 109 124 c145 164 162 189 262 371 46 85 108 196 137 245 83 143 97 174 170 387 86 248 94 285 120 573 11 127 22 238 24 247 2 9 0 144 -4 300 -13 452 -56 642 -214 963 -52 105 -109 211 -128 236 -65 91 -306 386 -403 493 l-98 109 69 -8 c38 -4 98 -16 133 -28z" fill="#ed6e01"/>
<path d="M11266 2489 c-182 -43 -334 -209 -366 -401 -45 -264 142 -517 412 -559 241 -38 481 120 543 356 30 115 15 247 -41 357 -34 67 -135 168 -202 202 -102 51 -241 70 -346 45z m205 -53 c89 -19 141 -47 211 -114 177 -169 180 -439 6 -615 -81 -82 -165 -120 -280 -125 -175 -9 -314 66 -405 218 -65 108 -70 275 -13 395 42 89 119 166 203 206 105 49 172 57 278 35z" fill="#ed6e01"/>
<path d="M11285 2236 c-97 -45 -149 -125 -148 -228 2 -138 108 -241 248 -241 146 1 257 125 242 270 -17 167 -193 269 -342 199z" fill="#ed6e01"/>
</g>
</svg>