<svg xmlns="http://www.w3.org/2000/svg" version="1.0" width="366.000000pt" height="282.000000pt" viewBox="0 0 366.000000 282.000000" preserveAspectRatio="xMidYMid meet">

<g transform="translate(0.000000,282.000000) scale(0.100000,-0.100000)" fill="#4cffe1" stroke="none">
<path d="M1911 2309 c-127 -25 -257 -88 -386 -189 -228 -177 -287 -209 -386 -210 -58 0 -129 29 -176 72 -40 37 -92 151 -106 234 l-14 79 -9 -50 c-5 -27 -9 -131 -9 -230 0 -161 2 -188 23 -255 60 -190 168 -324 323 -399 208 -100 418 -92 635 24 44 24 98 55 120 70 127 87 299 143 399 130 114 -15 215 -93 250 -193 22 -65 30 -195 16 -262 -43 -201 -270 -463 -656 -758 -29 -22 -29 -23 -5 -16 46 12 117 51 321 180 219 137 337 238 440 374 59 79 149 251 177 340 89 275 23 611 -157 810 -108 121 -278 211 -458 246 -81 15 -271 17 -342 3z" fill="#4cffe1"/>
</g>
</svg>