<svg xmlns="http://www.w3.org/2000/svg" version="1.0" width="366.000000pt" height="282.000000pt" viewBox="0 0 366.000000 282.000000" preserveAspectRatio="xMidYMid meet">

<g transform="translate(0.000000,282.000000) scale(0.100000,-0.100000)" fill="#8eb247" stroke="none">
<path d="M2510 2636 c-47 -13 -107 -34 -135 -47 -51 -25 -289 -208 -281 -216 3 -3 40 6 83 20 108 36 180 47 299 47 204 0 372 -60 521 -187 62 -52 106 -116 162 -233 61 -127 81 -219 81 -369 0 -155 -16 -227 -75 -346 -56 -112 -68 -127 -185 -246 -77 -77 -110 -102 -172 -132 -114 -54 -187 -71 -308 -71 -254 -1 -423 117 -643 451 -126 191 -176 256 -271 346 -117 113 -246 191 -391 237 -87 28 -284 39 -378 20 -335 -64 -598 -303 -722 -657 -11 -29 -16 -55 -12 -59 3 -3 22 4 41 15 20 12 82 38 138 58 223 76 476 49 693 -74 158 -90 278 -194 470 -408 364 -407 593 -536 945 -536 186 0 321 35 512 133 287 147 515 412 627 730 66 185 75 244 75 468 0 155 -4 227 -17 295 -34 172 -94 322 -177 444 -174 253 -574 397 -880 317z" fill="#8eb247"/>
</g>
</svg>