<svg xmlns="http://www.w3.org/2000/svg" version="1.0" width="366.000000pt" height="282.000000pt" viewBox="0 0 366.000000 282.000000" preserveAspectRatio="xMidYMid meet">

<g transform="translate(0.000000,282.000000) scale(0.100000,-0.100000)" fill="#cc518e" stroke="none">
<path d="M530 1937 c0 -4 37 -66 81 -139 45 -73 91 -149 102 -168 93 -157 259 -332 415 -438 261 -178 603 -265 966 -248 323 16 634 115 784 251 89 82 132 172 132 281 -1 298 -231 453 -491 329 -25 -12 -108 -65 -185 -117 -231 -158 -364 -221 -547 -259 -158 -32 -263 -35 -406 -10 -268 46 -489 169 -733 409 -65 64 -118 113 -118 109z" fill="#cc518e"/>
</g>
</svg>