<?xml version="1.0" ?>
<!-- Uploaded to: SVG Repo, www.svgrepo.com, Generator: SVG Repo Mixer Tools -->
<svg fill="#000000" width="800px" height="800px" viewBox="0 0 64 64" xmlns="http://www.w3.org/2000/svg">
<title/>
<g id="Outline">
<path d="M54.26,26.12a21.39,21.39,0,0,0-7.88-11.38,1.19,1.19,0,0,0-.16-.08A5.4,5.4,0,0,0,44,12.46C46.68,8.85,46.74,8,46.77,7.69a2.49,2.49,0,0,0-.74-2c-.63-.65-1.94-1.39-4.56-1.24-2.45.14-4.81,2.15-6.22,3.6a5.47,5.47,0,0,0-6.5,0C27.43,6.72,25,4.62,22.53,4.48S18.6,5.07,18,5.72a2.48,2.48,0,0,0-.74,2c0,.36.09,1.18,2.77,4.77a5.49,5.49,0,0,0-2.19,2.15A21.36,21.36,0,0,0,9.74,26.12c-2.66.35-4.74,3-4.74,6.11,0,3.33,2.31,6,5.18,6.14A22,22,0,0,0,23.4,51.51a8.37,8.37,0,0,0,8.6,8,8.39,8.39,0,0,0,8.61-8A22.32,22.32,0,0,0,53.78,38.38c2.89-.09,5.22-2.81,5.22-6.15C59,29.07,56.92,26.47,54.26,26.12ZM41.58,6.48c2.1-.12,2.84.46,3,.64a.51.51,0,0,1,.18.38,16.75,16.75,0,0,1-2.44,3.88A1.9,1.9,0,0,0,42,12.86a1.85,1.85,0,0,0,.86,1.24c1.19.73,1.62,1.36,1.55,1.59a4.26,4.26,0,0,1-2.11,1.91,3.49,3.49,0,0,1-2.59.37,8.92,8.92,0,0,1-3-2.59,5.7,5.7,0,0,0,.37-.69c.35.14.79.32,1.32.56a1,1,0,0,0,.42.09,1,1,0,0,0,.42-1.9c-.71-.33-1.29-.56-1.72-.72,0-.07,0-.14,0-.21a4.21,4.21,0,0,0,0-.62A13.49,13.49,0,0,1,40,11.17a1,1,0,1,0-.35-2,14,14,0,0,0-2.77.77c-.08-.15-.17-.3-.26-.44C37.57,8.55,39.7,6.58,41.58,6.48ZM32,9a3.5,3.5,0,1,1-3.5,3.5A3.5,3.5,0,0,1,32,9ZM21.13,14.1A1.85,1.85,0,0,0,22,12.86a1.9,1.9,0,0,0-.33-1.48,17.43,17.43,0,0,1-2.44-3.86.52.52,0,0,1,.18-.4c.18-.18.92-.76,3-.64,1.91.11,4,2.11,5,3.06-.09.14-.18.29-.26.44a14.16,14.16,0,0,0-2.77-.77,1,1,0,0,0-1.16.8,1,1,0,0,0,.8,1.16,13.18,13.18,0,0,1,2.55.72,4.3,4.3,0,0,0,0,.62c0,.07,0,.14,0,.21-.43.16-1,.39-1.72.72a1,1,0,0,0,.42,1.9,1.06,1.06,0,0,0,.42-.09c.52-.24,1-.43,1.32-.56a5.7,5.7,0,0,0,.37.69,8.92,8.92,0,0,1-3,2.59,3.5,3.5,0,0,1-2.59-.37,4.26,4.26,0,0,1-2.11-1.91C19.51,15.46,19.94,14.83,21.13,14.1ZM7,32.23a4.19,4.19,0,0,1,2.26-3.91,20.29,20.29,0,0,0,.29,7.93A4.07,4.07,0,0,1,7,32.23ZM40.67,44.55a6.28,6.28,0,0,1-1,3.14A8.27,8.27,0,0,0,38.4,46a2.47,2.47,0,0,0,.6-1.61V42.8a2.48,2.48,0,0,0-2.48-2.47h-9A2.48,2.48,0,0,0,25,42.8v1.61a2.45,2.45,0,0,0,.61,1.6,8.48,8.48,0,0,0-1.24,1.68,6.28,6.28,0,0,1-1-3.14c-.16-2.39-.08-6.48,2.17-7a5.58,5.58,0,0,1,3.77.6l.88.35A5.16,5.16,0,0,0,32,39a5.19,5.19,0,0,0,1.9-.49l.83-.33a5.58,5.58,0,0,1,3.77-.6C40.75,38.07,40.83,42.16,40.67,44.55Zm-13.52.19a.45.45,0,0,1-.15-.33V42.8a.47.47,0,0,1,.48-.47h9a.47.47,0,0,1,.48.47v1.61a.46.46,0,0,1-.15.33,9,9,0,0,0-9.7,0ZM32,57.54a6.38,6.38,0,0,1-6.61-6.11A6.38,6.38,0,0,1,32,45.32a6.38,6.38,0,0,1,6.61,6.11A6.38,6.38,0,0,1,32,57.54Zm9-8.35a8.33,8.33,0,0,0,1.66-4.51c.43-6.7-1.79-8.63-3.73-9.07a7.37,7.37,0,0,0-5,.7c-.26.1-.51.21-.87.34A3.7,3.7,0,0,1,32,37a3.74,3.74,0,0,1-1.2-.36L30,36.31a7.38,7.38,0,0,0-5-.7c-1.94.44-4.16,2.37-3.73,9.07A8.33,8.33,0,0,0,23,49.19c-7.33-3.22-12-10-12-17.64A18.86,18.86,0,0,1,18,17a6.84,6.84,0,0,0,2.81,2.41,6.41,6.41,0,0,0,2.73.69A4,4,0,0,0,25,19.84a10.24,10.24,0,0,0,3.7-3,5.47,5.47,0,0,0,6.66,0,10.16,10.16,0,0,0,3.7,3,4,4,0,0,0,1.43.25,6.41,6.41,0,0,0,2.73-.69A6.84,6.84,0,0,0,46,17a18.89,18.89,0,0,1,7,14.56A19.62,19.62,0,0,1,41,49.19ZM54.43,36.26A20,20,0,0,0,55,31.55a20.4,20.4,0,0,0-.26-3.23A4.18,4.18,0,0,1,57,32.23,4.07,4.07,0,0,1,54.43,36.26Z"/>
<path d="M23.29,26.47a3.86,3.86,0,0,0-3.61,4.05,1,1,0,1,0,2,0,1.87,1.87,0,0,1,1.61-2.05,1.87,1.87,0,0,1,1.61,2.05,1,1,0,1,0,2,0A3.86,3.86,0,0,0,23.29,26.47Z"/>
<path d="M39.84,26.47a3.86,3.86,0,0,0-3.61,4.05,1,1,0,1,0,2,0,1.87,1.87,0,0,1,1.61-2.05,1.87,1.87,0,0,1,1.61,2.05,1,1,0,0,0,2,0A3.86,3.86,0,0,0,39.84,26.47Z"/>
<path d="M32,47a4.49,4.49,0,1,0,4.73,4.48A4.61,4.61,0,0,0,32,47Zm0,7a2.49,2.49,0,1,1,2.73-2.48A2.62,2.62,0,0,1,32,53.91Z"/>
</g>
</svg>