<svg xmlns="http://www.w3.org/2000/svg" version="1.0" width="1024.000000pt" height="731.000000pt" viewBox="0 0 1024.000000 731.000000" preserveAspectRatio="xMidYMid meet">

<g transform="translate(0.000000,731.000000) scale(0.100000,-0.100000)" fill="#858585" stroke="none">
<path d="M1360 5159 c0 -948 4 -1538 9 -1534 5 3 12 1 16 -5 3 -5 -1 -10 -9 -10 -14 0 -16 -150 -16 -1520 l0 -1520 1221 0 c811 0 1218 3 1214 10 -4 6 6 10 22 10 22 0 25 -2 13 -11 -10 -7 773 -9 2477 -7 1370 2 2494 6 2497 9 3 3 6 200 6 439 1 343 -2 435 -12 442 -10 6 -10 10 -1 16 10 6 13 568 14 2612 l2 2605 -3727 3 -3726 2 0 -1541z m1967 1265 c-3 -3 -12 -4 -19 -1 -8 3 -5 6 6 6 11 1 17 -2 13 -5z m172 -25 c110 0 204 2 210 5 5 4 42 3 83 -1 71 -8 68 -8 -72 -14 -80 -4 -178 -10 -219 -14 -55 -6 -72 -5 -67 4 5 8 -35 11 -151 13 -120 1 -142 3 -93 8 36 4 75 5 87 3 12 -1 112 -3 222 -4z m1969 4 c-10 -2 -28 -2 -40 0 -13 2 -5 4 17 4 22 1 32 -1 23 -4z m117 -3 c3 -5 -3 -10 -15 -10 -12 0 -18 5 -15 10 3 6 10 10 15 10 5 0 12 -4 15 -10z m1592 4 c-3 -3 -12 -4 -19 -1 -8 3 -5 6 6 6 11 1 17 -2 13 -5z m-4724 -11 c-7 -2 -21 -2 -30 0 -10 3 -4 5 12 5 17 0 24 -2 18 -5z m113 -6 c4 -4 -17 -7 -47 -7 -37 0 -49 3 -39 10 16 10 76 8 86 -3z m429 3 c58 -8 57 -8 -40 -10 -303 -6 -338 -5 -342 7 -4 10 33 13 159 12 90 -1 190 -5 223 -9z m1002 4 c-3 -3 -12 -4 -19 -1 -8 3 -5 6 6 6 11 1 17 -2 13 -5z m635 -6 c-8 -8 -20 -8 -44 -1 l-33 11 45 1 c33 1 41 -2 32 -11z m208 2 c0 -12 -17 -12 -45 0 -17 7 -15 9 13 9 17 1 32 -3 32 -9z m549 6 c-10 -9 -149 -14 -149 -5 0 5 34 9 77 9 42 0 74 -2 72 -4z m-311 -13 c-10 -2 -26 -2 -35 0 -10 3 -2 5 17 5 19 0 27 -2 18 -5z m115 0 c-7 -2 -21 -2 -30 0 -10 3 -4 5 12 5 17 0 24 -2 18 -5z m995 0 c-10 -2 -28 -2 -40 0 -13 2 -5 4 17 4 22 1 32 -1 23 -4z m-1458 -277 c0 -3 -4 -8 -10 -11 -5 -3 -10 -1 -10 4 0 6 5 11 10 11 6 0 10 -2 10 -4z m-463 -62 c-3 -3 -12 -4 -19 -1 -8 3 -5 6 6 6 11 1 17 -2 13 -5z m-1249 -11 c-10 -2 -28 -2 -40 0 -13 2 -5 4 17 4 22 1 32 -1 23 -4z m309 1 c-3 -3 -12 -4 -19 -1 -8 3 -5 6 6 6 11 1 17 -2 13 -5z m620 0 c-3 -3 -12 -4 -19 -1 -8 3 -5 6 6 6 11 1 17 -2 13 -5z m2163 -4 c10 -7 -16 -9 -80 -8 l-95 2 75 6 c41 4 77 7 80 8 3 1 12 -3 20 -8z m-1597 -7 c-7 -2 -19 -2 -25 0 -7 3 -2 5 12 5 14 0 19 -2 13 -5z m110 0 c-7 -2 -21 -2 -30 0 -10 3 -4 5 12 5 17 0 24 -2 18 -5z m-1586 -19 c-3 -3 -12 -4 -19 -1 -8 3 -5 6 6 6 11 1 17 -2 13 -5z m76 -1 c-7 -2 -19 -2 -25 0 -7 3 -2 5 12 5 14 0 19 -2 13 -5z m157 -3 c0 -5 -7 -10 -15 -10 -8 0 -15 5 -15 10 0 6 7 10 15 10 8 0 15 -4 15 -10z m285 0 c4 -6 -14 -9 -47 -9 l-53 2 40 7 c22 4 43 8 47 9 4 0 10 -3 13 -9z m495 -2 c0 -4 15 -8 33 -8 24 0 28 3 17 10 -10 6 5 9 48 7 35 -1 55 -4 45 -8 -12 -5 0 -8 32 -11 28 -3 -23 -5 -112 -5 -98 0 -163 4 -163 10 0 5 11 6 24 3 14 -3 27 -3 30 2 6 10 46 10 46 0z m1823 5 c-7 -2 -19 -2 -25 0 -7 3 -2 5 12 5 14 0 19 -2 13 -5z m312 -1 c-10 -10 -205 -11 -205 -1 0 4 48 8 106 8 59 0 103 -3 99 -7z m82 2 c-3 -3 -12 -4 -19 -1 -8 3 -5 6 6 6 11 1 17 -2 13 -5z m132 1 c-10 -10 -82 -13 -102 -5 -16 6 -5 9 42 9 35 1 62 -1 60 -4z m69 -2 c-10 -2 -26 -2 -35 0 -10 3 -2 5 17 5 19 0 27 -2 18 -5z m162 -3 c0 -13 -20 -13 -40 0 -12 8 -9 10 13 10 15 0 27 -4 27 -10z m185 0 c3 -5 1 -10 -4 -10 -6 0 -11 5 -11 10 0 6 2 10 4 10 3 0 8 -4 11 -10z m115 1 c-36 -4 -69 -5 -73 -1 -4 4 25 7 65 7 l73 1 -65 -7z m363 2 c-29 -2 -78 -2 -110 0 -32 2 -8 3 52 3 61 0 87 -1 58 -3z m140 0 c-7 -2 -21 -2 -30 0 -10 3 -4 5 12 5 17 0 24 -2 18 -5z m200 0 c-29 -2 -77 -2 -105 0 -29 2 -6 3 52 3 58 0 81 -1 53 -3z m-4320 -10 c-7 -2 -19 -2 -25 0 -7 3 -2 5 12 5 14 0 19 -2 13 -5z m997 -3 c0 -5 -7 -10 -16 -10 -8 0 -12 5 -9 10 3 6 10 10 16 10 5 0 9 -4 9 -10z m205 -5 c6 -2 -37 -3 -95 -4 -59 0 -96 4 -85 8 18 7 157 4 180 -4z m1428 8 c-7 -2 -19 -2 -25 0 -7 3 -2 5 12 5 14 0 19 -2 13 -5z m-2296 -9 c-3 -3 -12 -4 -19 -1 -8 3 -5 6 6 6 11 1 17 -2 13 -5z m101 -1 c-10 -2 -26 -2 -35 0 -10 3 -2 5 17 5 19 0 27 -2 18 -5z m55 0 c-7 -2 -19 -2 -25 0 -7 3 -2 5 12 5 14 0 19 -2 13 -5z m385 -39 l473 -6 -3 -1032 c-1 -567 -4 -1064 -6 -1103 l-4 -73 -1250 0 -1251 0 6 713 c4 391 7 893 7 1113 l0 402 778 -4 c427 -3 990 -7 1250 -10z m4322 -104 c1 -36 4 -198 7 -361 4 -220 2 -303 -7 -319 -10 -18 -9 -21 1 -15 9 6 11 -11 7 -78 -6 -86 -6 -86 21 -96 l26 -9 -29 -1 c-25 -1 -28 -4 -22 -27 4 -15 14 -33 21 -41 20 -19 20 -39 0 -23 -12 10 -15 9 -15 -4 0 -10 7 -24 15 -32 17 -18 20 -55 4 -51 -6 1 -14 -4 -16 -10 -3 -7 2 -13 11 -13 19 0 21 -11 4 -29 -10 -9 -12 -49 -10 -147 2 -82 -1 -134 -7 -134 -5 0 -8 -17 -6 -37 1 -21 4 -38 5 -38 1 0 3 -8 5 -17 2 -10 -1 -18 -7 -18 -6 0 -6 -6 2 -15 10 -12 10 -16 -1 -20 -12 -4 -15 -87 -17 -456 -2 -311 0 -449 8 -444 6 4 10 -10 10 -39 0 -25 -4 -46 -8 -46 -5 0 -7 -13 -4 -30 2 -16 8 -30 13 -30 5 0 8 -12 8 -27 -2 -28 -2 -28 -7 -3 -5 21 -7 17 -19 -25 l-13 -50 6 63 c3 37 1 62 -4 58 -5 -3 -8 66 -6 167 1 104 -1 154 -5 127 -5 -25 -9 489 -9 1142 -1 653 1 1202 5 1220 l7 33 13 -30 c7 -16 13 -59 13 -95z m-516 -142 c7 -252 9 -1939 2 -1945 -4 -4 -544 -9 -1782 -18 l-692 -4 -5 227 c-2 125 -5 624 -6 1110 l-1 882 1238 0 1239 0 7 -252z m-2957 155 c-2 -16 -4 -3 -4 27 0 30 2 43 4 28 2 -16 2 -40 0 -55z m243 51 c0 -8 -4 -14 -10 -14 -5 0 -10 -21 -10 -46 0 -38 2 -44 14 -35 11 9 15 -5 20 -87 4 -54 4 -110 1 -125 -7 -27 7 -38 20 -17 4 6 7 71 7 145 0 75 4 138 9 140 9 6 31 -30 23 -38 -3 -3 -1 -14 5 -24 8 -14 10 -8 11 34 0 28 4 55 10 58 5 3 10 -4 9 -17 -1 -29 5 -55 14 -64 4 -4 7 -16 7 -26 0 -10 5 -18 10 -18 6 0 10 14 10 32 0 17 2 29 5 26 3 -3 8 -58 10 -123 3 -65 8 -121 10 -126 3 -4 1 -10 -4 -14 -7 -3 -7 -15 -1 -30 10 -26 14 -1785 5 -1785 -15 0 -35 31 -36 57 -1 21 -3 23 -6 8 -3 -11 -10 -31 -15 -45 l-10 -25 -10 25 c-11 31 -1 94 23 140 17 33 18 33 19 10 1 -23 2 -23 9 -5 13 31 14 235 1 235 -5 0 -10 9 -10 21 0 12 -8 23 -19 26 -28 7 -35 44 -10 50 20 6 20 6 -1 25 -11 11 -20 31 -20 48 0 17 -3 30 -7 30 -5 0 -8 -21 -8 -46 0 -25 -3 -48 -7 -50 -11 -7 -10 -52 2 -59 16 -10 12 -45 -5 -45 -8 0 -15 8 -15 18 0 15 -6 18 -30 14 -29 -4 -29 -4 -25 39 13 128 12 170 -1 184 -11 11 -16 53 -18 172 -3 87 -7 167 -11 178 -4 13 -4 16 2 8 11 -15 10 135 -1 159 -12 26 -1 100 16 109 8 5 15 23 16 40 1 24 -2 29 -11 20 -26 -26 -29 -5 -22 162 6 167 7 228 4 427 -4 199 0 250 16 244 8 -4 15 -12 15 -20z m2769 -141 c2 -154 10 -193 13 -57 l1 89 7 -75 c4 -41 8 -150 9 -242 0 -97 5 -168 11 -170 5 -1 12 -70 16 -153 3 -82 9 -154 11 -159 3 -4 -4 -5 -15 -2 -18 6 -20 3 -17 -31 2 -21 6 -51 11 -67 5 -22 4 -27 -5 -21 -10 5 -12 -65 -11 -321 2 -276 0 -333 -12 -357 -15 -28 -16 -28 -22 -5 -3 13 -6 53 -6 91 0 37 -3 67 -7 67 -5 0 -7 258 -7 573 3 932 4 977 20 977 1 0 3 -62 3 -137z m-3309 95 c0 -5 8 -8 18 -6 9 1 28 -5 42 -15 24 -16 26 -16 37 0 12 15 13 15 13 1 0 -9 7 -24 16 -32 8 -9 13 -20 10 -25 -4 -5 16 -8 44 -8 49 2 50 1 50 -27 0 -25 -2 -27 -16 -15 -13 10 -17 10 -24 0 -10 -18 -1 -51 15 -51 7 0 18 -12 23 -27 l10 -28 1 28 c1 15 5 27 10 27 5 0 10 -75 11 -167 5 -419 5 -401 -12 -420 -14 -15 -14 -20 -2 -31 16 -15 19 -62 4 -62 -15 0 -12 -40 3 -46 11 -4 13 -48 11 -217 -1 -117 -3 -219 -4 -227 -2 -8 0 -30 5 -49 7 -31 6 -33 -14 -28 -11 3 -21 1 -21 -5 0 -5 -4 -6 -10 -3 -5 3 -10 -1 -10 -11 0 -12 6 -15 26 -11 l27 5 -6 -69 c-4 -43 -2 -67 4 -64 5 4 9 -33 8 -92 l-1 -98 -13 65 -13 65 -1 -46 c-1 -44 -2 -46 -26 -41 -14 2 -25 11 -25 19 0 10 7 14 20 10 14 -3 20 0 20 10 0 10 -6 14 -20 10 -11 -3 -20 -1 -20 4 0 8 15 13 33 10 4 0 7 11 7 26 0 22 -2 25 -10 13 -6 -10 -10 -11 -10 -2 0 6 -9 12 -20 12 -15 0 -20 -7 -20 -25 0 -14 -4 -25 -10 -25 -5 0 -10 21 -10 46 0 37 3 45 15 40 9 -3 15 0 15 9 0 8 -6 12 -14 9 -9 -3 -16 6 -20 28 l-8 33 -10 -25 c-6 -14 -11 -38 -12 -54 -2 -51 -23 -40 -29 15 -7 61 -9 63 -36 54 -16 -5 -21 -15 -21 -39 0 -17 5 -37 11 -43 8 -8 6 -18 -6 -37 -17 -25 -16 -26 1 -27 13 -1 15 -3 4 -5 -11 -4 -16 -23 -17 -84 -1 -46 2 -82 8 -86 6 -3 7 -19 4 -35 -4 -18 -3 -29 4 -29 6 0 11 -4 11 -10 0 -5 -7 -10 -15 -10 -20 0 -19 -13 5 -63 13 -27 21 -64 22 -102 1 -75 5 -184 8 -210 2 -17 3 -16 9 5 5 15 8 -14 9 -75 2 -55 7 -104 12 -109 6 -6 10 -29 10 -53 0 -25 5 -43 11 -43 7 0 9 -12 5 -36 -5 -22 -3 -41 5 -50 9 -11 9 -21 1 -38 -6 -13 -8 -34 -5 -47 4 -15 3 -20 -5 -15 -7 4 -12 5 -12 2 0 -2 -3 -13 -6 -23 -5 -15 -4 -15 5 -3 9 12 11 10 11 -12 0 -16 -4 -28 -10 -28 -5 0 -10 -14 -10 -31 0 -16 4 -28 8 -25 4 2 6 -27 4 -66 -3 -47 0 -73 7 -78 9 -5 9 -29 0 -101 -6 -52 -8 -125 -5 -164 3 -38 8 -115 10 -170 2 -55 9 -183 15 -285 7 -102 14 -219 16 -260 2 -41 5 -93 7 -115 1 -22 4 19 7 90 4 72 3 135 0 140 -8 13 -3 204 5 212 3 4 8 4 11 1 10 -10 21 -331 16 -448 -4 -105 -1 -264 5 -258 3 4 6 52 5 107 0 94 7 119 25 89 4 -6 2 -14 -4 -16 -7 -2 -12 -8 -12 -13 0 -4 7 -6 15 -3 12 5 14 -8 15 -68 2 -131 5 -176 10 -173 3 2 5 -89 5 -202 0 -113 3 -207 8 -210 26 -16 -22 -23 -154 -23 l-149 0 0 25 c0 22 3 24 25 15 15 -6 26 -6 30 0 4 6 15 10 26 10 14 0 18 4 12 12 -4 7 -7 22 -8 32 0 35 -25 30 -26 -6 -3 -63 -20 128 -23 262 -2 74 -8 187 -12 250 l-9 115 -6 -110 c-5 -106 -5 -104 -6 45 0 85 2 145 4 132 4 -19 7 -21 19 -11 12 10 14 4 14 -32 0 -32 3 -40 10 -29 5 8 10 43 10 77 0 49 -3 61 -14 57 -18 -7 -25 53 -30 271 -4 144 -3 157 10 130 14 -29 14 -29 8 20 -4 28 -6 105 -5 171 1 67 -3 134 -9 149 -7 19 -7 30 -1 35 6 3 10 39 9 79 -1 59 2 75 15 83 24 13 26 278 2 278 -8 0 -15 5 -15 11 0 6 6 9 13 6 10 -4 12 15 10 92 -2 53 -7 125 -12 161 -4 36 -6 117 -4 180 2 63 3 144 4 180 0 36 5 70 10 77 7 8 5 23 -6 46 -18 38 -24 189 -10 275 5 37 5 52 -4 52 -7 0 -12 -22 -13 -57 l-2 -58 -5 60 -5 60 -6 -60 c-5 -46 -8 -25 -10 90 l-4 150 -6 -120 c-5 -108 -6 -98 -10 105 -9 608 -5 1032 11 935 3 -22 7 62 8 188 0 125 4 227 9 227 4 0 6 56 4 125 -3 109 -1 124 12 119 9 -3 16 -10 16 -16z m387 -100 c10 -11 11 -18 3 -23 -8 -5 -7 -10 4 -18 8 -7 17 -23 19 -37 2 -14 5 0 7 30 2 47 3 51 10 25 l8 -30 1 30 c1 17 5 25 10 20 14 -16 22 -605 8 -606 -9 0 -8 -2 1 -6 9 -3 12 -52 11 -196 -1 -106 -4 -203 -8 -217 -4 -14 -6 31 -5 100 3 106 2 117 -7 71 -5 -30 -14 -60 -21 -68 -9 -11 -7 -12 7 -7 14 6 16 3 12 -12 -3 -10 -9 -31 -12 -46 -3 -16 -7 -40 -10 -54 -4 -16 -2 -23 5 -19 5 3 10 -2 10 -14 0 -10 -5 -21 -11 -23 -7 -2 -11 -25 -11 -55 1 -29 -3 -55 -8 -58 -6 -3 -7 -17 -4 -29 4 -16 0 -25 -10 -29 -9 -4 -16 -12 -16 -19 0 -9 3 -9 12 0 7 7 27 12 45 12 29 0 33 -3 33 -25 0 -14 -5 -25 -11 -25 -6 0 -8 9 -4 21 6 18 3 20 -21 17 -17 -2 -28 -10 -30 -20 -1 -10 2 -18 7 -18 5 0 9 5 9 11 0 5 5 7 10 4 12 -7 -16 -38 -37 -41 -9 -2 -13 5 -11 19 2 14 -2 21 -11 19 -11 -2 -12 8 -6 53 4 32 3 55 -3 55 -9 0 -21 -122 -28 -280 -5 -131 -11 -213 -17 -240 -12 -53 -18 -220 -8 -220 5 0 12 10 15 23 2 12 3 -24 2 -80 -2 -68 2 -112 11 -133 17 -42 17 -53 -3 -46 -9 3 -14 3 -12 -1 24 -50 33 -63 43 -63 18 0 40 -47 28 -62 -5 -7 -10 -26 -11 -41 -2 -37 -9 -47 -27 -41 -11 5 -13 -2 -8 -30 4 -27 2 -37 -11 -42 -9 -3 -16 -10 -16 -16 0 -5 5 -6 10 -3 6 4 10 -11 10 -37 1 -24 2 -98 4 -165 1 -70 -1 -123 -7 -123 -5 0 -6 -32 -3 -74 4 -45 2 -77 -4 -81 -6 -3 -6 -13 -1 -23 17 -35 31 -89 30 -123 0 -28 -2 -30 -9 -14 -5 11 -9 15 -9 8 -1 -6 -4 -19 -7 -28 -4 -9 -3 -15 2 -13 9 3 13 -10 8 -27 -17 -59 -22 -191 -9 -244 6 -25 5 -32 -3 -27 -9 5 -12 -7 -11 -41 0 -26 3 -42 6 -35 8 20 22 14 16 -8 -3 -12 -2 -20 3 -18 11 4 14 -5 14 -37 0 -16 -6 -25 -15 -25 -8 0 -15 -5 -15 -11 0 -5 -4 -7 -10 -4 -5 3 -10 2 -10 -4 0 -5 4 -12 9 -15 4 -3 11 -20 15 -38 5 -26 9 -30 16 -18 9 14 10 12 10 -15 0 -3 -3 -4 -7 -2 -12 3 -20 -56 -11 -76 6 -12 5 -17 -7 -17 -19 0 -19 -17 -1 -52 15 -27 6 -48 -21 -48 -7 0 -13 -4 -13 -9 0 -6 9 -8 20 -6 25 5 33 -9 24 -38 l-8 -22 -7 25 c-6 22 -7 20 -8 -12 -1 -20 -6 -40 -12 -44 -8 -5 -6 -10 5 -16 10 -5 16 -22 16 -43 0 -18 6 -36 13 -38 6 -3 3 -6 -8 -6 -17 -1 -18 -3 -5 -11 13 -9 13 -11 0 -19 -12 -8 -12 -13 0 -36 13 -24 13 -28 -3 -40 -25 -18 -21 -25 13 -25 17 0 30 -5 30 -12 0 -6 -3 -8 -7 -5 -10 11 -32 -13 -26 -29 3 -8 1 -14 -5 -14 -14 0 -23 -173 -9 -182 9 -5 9 -10 -1 -20 -6 -6 -12 -19 -11 -28 0 -10 3 -9 9 5 8 18 9 18 10 -5 6 -75 4 -97 -11 -117 -16 -22 -17 -22 -23 30 -3 28 -6 388 -5 799 1 410 -1 750 -3 755 -4 7 -4 286 0 321 1 7 7 10 12 7 14 -8 13 8 -1 22 -13 13 -20 210 -18 558 0 127 0 669 -1 1206 -2 784 0 978 10 984 10 6 11 2 7 -16 -3 -13 -2 -31 3 -39 7 -11 10 -3 10 29 0 35 3 41 13 32 8 -6 17 -7 21 -3 5 4 7 0 6 -8 -5 -32 0 -70 10 -70 5 0 7 23 4 53 -2 28 -1 45 2 37 4 -8 13 -22 21 -32z m3420 5 c-3 -10 -5 -4 -5 12 0 17 2 24 5 18 2 -7 2 -21 0 -30z m-6427 -105 c0 -45 -2 -79 -4 -77 -7 6 -14 132 -9 147 10 25 13 10 13 -70z m6440 53 c0 -6 -4 -13 -10 -16 -5 -3 -10 1 -10 9 0 9 5 16 10 16 6 0 10 -4 10 -9z m-13 -83 c-3 -8 -6 -5 -6 6 -1 11 2 17 5 13 3 -3 4 -12 1 -19z m-3860 -160 c-2 -24 -4 -5 -4 42 0 47 2 66 4 43 2 -24 2 -62 0 -85z m3860 90 c-3 -8 -6 -5 -6 6 -1 11 2 17 5 13 3 -3 4 -12 1 -19z m-6427 -75 c0 -77 -14 -77 -17 0 -1 48 2 67 13 67 2 0 4 -30 4 -67z m-2 -258 c0 -114 -3 -175 -10 -175 -9 0 -10 322 0 343 9 19 10 -5 10 -168z m6519 -17 c-3 -8 -6 -5 -6 6 -1 11 2 17 5 13 3 -3 4 -12 1 -19z m-67 -18 c0 -5 -5 -10 -11 -10 -5 0 -7 5 -4 10 3 6 8 10 11 10 2 0 4 -4 4 -10z m-6493 -52 c-3 -8 -6 -5 -6 6 -1 11 2 17 5 13 3 -3 4 -12 1 -19z m6472 -56 c-6 -3 -6 -9 2 -18 7 -9 8 -14 1 -14 -6 0 -13 -10 -15 -22 -4 -20 -3 18 3 92 2 24 2 24 11 -5 5 -19 5 -31 -2 -33z m-532 -19 c-3 -10 -5 -4 -5 12 0 17 2 24 5 18 2 -7 2 -21 0 -30z m-5899 -97 c1 -40 -2 -84 -7 -97 -7 -18 -10 1 -10 74 -1 112 15 133 17 23z m6512 -7 c0 -6 -4 -7 -10 -4 -5 3 -10 11 -10 16 0 6 5 7 10 4 6 -3 10 -11 10 -16z m-6553 -56 c-3 -10 -5 -2 -5 17 0 19 2 27 5 18 2 -10 2 -26 0 -35z m6593 -23 c0 -5 -5 -10 -11 -10 -5 0 -7 5 -4 10 3 6 8 10 11 10 2 0 4 -4 4 -10z m-3463 -242 c-2 -13 -4 -5 -4 17 -1 22 1 32 4 23 2 -10 2 -28 0 -40z m-3130 -15 c-3 -10 -5 -2 -5 17 0 19 2 27 5 18 2 -10 2 -26 0 -35z m6510 -35 c-3 -7 -5 -2 -5 12 0 14 2 19 5 13 2 -7 2 -19 0 -25z m0 -40 c-3 -8 -6 -5 -6 6 -1 11 2 17 5 13 3 -3 4 -12 1 -19z m-8 -29 c1 8 3 12 6 9 9 -8 -6 -38 -16 -32 -5 3 -9 15 -8 27 0 21 1 21 9 2 5 -12 9 -14 9 -6z m-3474 -99 c3 -5 1 -10 -4 -10 -6 0 -11 5 -11 10 0 6 2 10 4 10 3 0 8 -4 11 -10z m3476 -55 c5 14 7 4 7 -30 -1 -27 -3 -38 -5 -22 -2 15 -9 27 -14 27 -5 0 -8 10 -8 23 1 20 2 20 7 2 l5 -20 8 20z m-3484 -197 c-3 -8 -6 -5 -6 6 -1 11 2 17 5 13 3 -3 4 -12 1 -19z m323 -53 c4 -6 2 -16 -6 -23 -12 -11 -14 -4 -12 45 1 40 2 47 5 23 3 -19 8 -39 13 -45z m-43 13 c-2 -13 -4 -5 -4 17 -1 22 1 32 4 23 2 -10 2 -28 0 -40z m2680 0 c-3 -8 -6 -5 -6 6 -1 11 2 17 5 13 3 -3 4 -12 1 -19z m-2680 -60 c-3 -8 -6 -5 -6 6 -1 11 2 17 5 13 3 -3 4 -12 1 -19z m50 -25 c-3 -10 -5 -2 -5 17 0 19 2 27 5 18 2 -10 2 -26 0 -35z m2630 25 c-3 -8 -6 -5 -6 6 -1 11 2 17 5 13 3 -3 4 -12 1 -19z m-3087 2 c0 -5 -2 -10 -4 -10 -3 0 -8 5 -11 10 -3 6 -1 10 4 10 6 0 11 -4 11 -10z m390 2 c0 -13 -12 -22 -22 -16 -10 6 -1 24 13 24 5 0 9 -4 9 -8z m2690 -32 c0 -5 -5 -10 -11 -10 -5 0 -7 5 -4 10 3 6 8 10 11 10 2 0 4 -4 4 -10z m-2696 -62 c-1 -46 -5 -63 -15 -63 -16 0 -16 2 -6 73 11 72 23 66 21 -10z m2696 32 c0 -5 -2 -10 -4 -10 -3 0 -8 5 -11 10 -3 6 -1 10 4 10 6 0 11 -4 11 -10z m-3343 -82 c-3 -7 -5 -2 -5 12 0 14 2 19 5 13 2 -7 2 -19 0 -25z m680 0 c-3 -8 -6 -5 -6 6 -1 11 2 17 5 13 3 -3 4 -12 1 -19z m2749 -43 c1 -39 -8 -31 -20 18 -5 21 -3 28 6 25 7 -3 13 -21 14 -43z m-3416 -31 c0 -13 -4 -24 -10 -24 -5 0 -10 14 -10 31 0 17 4 28 10 24 6 -3 10 -17 10 -31z m3810 -4 c0 -5 -5 -10 -11 -10 -5 0 -7 5 -4 10 3 6 8 10 11 10 2 0 4 -4 4 -10z m-373 -42 c-3 -8 -6 -5 -6 6 -1 11 2 17 5 13 3 -3 4 -12 1 -19z m-3319 -18 c3 -7 0 -10 -6 -6 -6 3 -13 0 -15 -6 -3 -7 -6 -2 -6 10 -1 25 19 26 27 2z m3683 -3 c-10 -9 -11 -8 -5 6 3 10 9 15 12 12 3 -3 0 -11 -7 -18z m5 -145 c-11 -10 -12 3 -7 63 l6 60 3 -59 c2 -32 1 -61 -2 -64z m-361 -22 c-1 -61 -5 -113 -9 -117 -3 -3 -6 1 -6 10 0 10 -6 17 -13 17 -7 0 -18 15 -25 33 -15 41 -15 50 -2 42 6 -4 13 7 16 24 4 17 10 28 15 25 14 -8 11 24 -6 55 -16 32 -10 45 15 31 15 -8 17 -24 15 -120z m-3227 86 c2 -10 -2 -15 -10 -14 -8 2 -12 -6 -11 -23 1 -16 -4 -26 -13 -26 -9 0 -14 12 -14 37 0 20 3 39 6 42 11 11 39 1 42 -16z m1375 -23 c-7 -2 -21 -2 -30 0 -10 3 -4 5 12 5 17 0 24 -2 18 -5z m122 -3 c3 -5 2 -10 -4 -10 -5 0 -13 5 -16 10 -3 6 -2 10 4 10 5 0 13 -4 16 -10z m191 2 c-3 -2 -31 -7 -62 -11 -61 -6 -82 -26 -40 -37 26 -6 92 -9 155 -6 33 2 34 3 15 17 -18 14 -18 14 9 15 17 0 27 -5 27 -15 0 -10 11 -15 38 -16 20 -1 41 -1 46 0 36 7 307 7 291 1 -18 -8 -17 -9 8 -9 18 -1 27 4 27 14 0 8 7 15 15 15 9 0 12 -6 9 -15 -7 -18 0 -19 26 -5 13 7 21 7 25 -1 12 -18 -4 -23 -78 -25 -415 -8 -796 -11 -772 -5 30 7 30 8 -15 18 -41 10 -42 11 -15 13 17 2 35 4 40 5 6 2 15 3 20 4 6 1 3 6 -5 11 -12 8 -10 10 10 10 46 0 70 -11 70 -33 0 -28 6 -19 13 21 5 23 3 31 -5 26 -6 -4 -8 -3 -4 4 4 6 37 10 82 10 41 0 72 -3 70 -6z m87 1 c-7 -2 -19 -2 -25 0 -7 3 -2 5 12 5 14 0 19 -2 13 -5z m144 1 c-3 -3 -12 -4 -19 -1 -8 3 -5 6 6 6 11 1 17 -2 13 -5z m153 -4 c0 -5 -7 -10 -15 -10 -8 0 -15 5 -15 10 0 6 7 10 15 10 8 0 15 -4 15 -10z m303 3 c-7 -2 -21 -2 -30 0 -10 3 -4 5 12 5 17 0 24 -2 18 -5z m-4270 -10 c-7 -2 -19 -2 -25 0 -7 3 -2 5 12 5 14 0 19 -2 13 -5z m295 0 c-15 -2 -42 -2 -60 0 -18 2 -6 4 27 4 33 0 48 -2 33 -4z m269 1 c-3 -3 -12 -4 -19 -1 -8 3 -5 6 6 6 11 1 17 -2 13 -5z m56 -1 c-7 -2 -21 -2 -30 0 -10 3 -4 5 12 5 17 0 24 -2 18 -5z m105 0 c-15 -2 -42 -2 -60 0 -18 2 -6 4 27 4 33 0 48 -2 33 -4z m229 1 c-3 -3 -12 -4 -19 -1 -8 3 -5 6 6 6 11 1 17 -2 13 -5z m60 0 c-3 -3 -12 -4 -19 -1 -8 3 -5 6 6 6 11 1 17 -2 13 -5z m210 0 c-3 -3 -12 -4 -19 -1 -8 3 -5 6 6 6 11 1 17 -2 13 -5z m2931 -11 c-16 -2 -40 -2 -55 0 -16 2 -3 4 27 4 30 0 43 -2 28 -4z m-3531 -15 c-3 -10 30 -13 152 -11 145 2 154 1 126 -13 l-30 -15 40 8 c72 14 409 5 482 -13 18 -5 23 -2 23 12 1 18 1 18 11 2 5 -10 15 -18 22 -18 8 0 6 4 -3 11 -11 8 -4 9 30 5 24 -2 46 -10 48 -15 2 -6 11 -11 20 -11 14 0 15 2 2 10 -20 13 -7 22 22 15 14 -4 25 -13 25 -21 0 -14 -95 -15 -811 -10 -446 3 -842 6 -879 6 -50 0 -68 3 -65 12 3 9 33 13 89 15 46 1 102 6 124 12 52 14 55 13 53 -1 -2 -9 10 -13 36 -12 21 1 34 -1 28 -5 -8 -5 85 -6 226 -2 38 1 34 21 -4 21 -13 0 -24 4 -24 10 0 11 102 1 111 -12 7 -11 95 2 116 18 23 17 37 18 30 2z m136 5 c-24 -2 -62 -2 -85 0 -24 2 -5 4 42 4 47 0 66 -2 43 -4z m105 0 c-10 -2 -28 -2 -40 0 -13 2 -5 4 17 4 22 1 32 -1 23 -4z m1297 -206 c0 -133 -4 -213 -10 -215 -6 -1 -13 28 -16 65 -3 38 -7 59 -8 48 l-2 -20 -8 20 c-14 35 -23 102 -12 85 8 -11 11 7 12 65 1 67 3 73 8 38 11 -64 16 -59 19 20 2 62 9 107 15 107 1 0 2 -96 2 -213z m1725 203 c12 -8 12 -10 -5 -10 -11 0 -27 5 -35 10 -12 8 -12 10 5 10 11 0 27 -5 35 -10z m-3553 -6 c-3 -3 -12 -4 -19 -1 -8 3 -5 6 6 6 11 1 17 -2 13 -5z m1056 -21 c-7 -2 -21 -2 -30 0 -10 3 -4 5 12 5 17 0 24 -2 18 -5z m2847 -3 c0 -5 -4 -10 -10 -10 -5 0 -10 5 -10 10 0 6 5 10 10 10 6 0 10 -4 10 -10z m-2559 -40 c5 0 9 -5 9 -11 0 -5 -6 -7 -12 -3 -10 6 -10 4 0 -7 8 -9 12 -43 11 -103 -1 -50 -4 -77 -7 -61 -4 26 -5 28 -12 10 -5 -11 -8 33 -7 100 0 66 2 110 5 98 2 -13 8 -23 13 -23z m616 8 c-3 -7 -5 -2 -5 12 0 14 2 19 5 13 2 -7 2 -19 0 -25z m796 25 c-7 -2 -19 -2 -25 0 -7 3 -2 5 12 5 14 0 19 -2 13 -5z m117 -3 c-10 -6 1 -8 33 -5 28 2 45 0 42 -6 -4 -5 -50 -8 -103 -7 -83 1 -89 2 -42 8 46 5 50 7 25 11 -25 5 -22 6 15 7 31 1 41 -1 30 -8z m1361 -1 c-35 -4 -71 -11 -79 -14 -7 -3 -19 -2 -25 2 -17 11 36 21 108 21 l60 -1 -64 -8z m-4801 -14 c10 -13 9 -15 -9 -15 -13 0 -19 4 -16 10 4 7 -10 9 -39 6 -26 -2 -44 0 -40 5 9 15 90 10 104 -6z m3267 -2 c-20 -2 -52 -2 -70 0 -17 2 0 4 38 4 39 0 53 -2 32 -4z m-3654 -10 c-7 -2 -21 -2 -30 0 -10 3 -4 5 12 5 17 0 24 -2 18 -5z m130 0 c-7 -2 -19 -2 -25 0 -7 3 -2 5 12 5 14 0 19 -2 13 -5z m2954 1 c-3 -3 -12 -4 -19 -1 -8 3 -5 6 6 6 11 1 17 -2 13 -5z m111 -1 c-10 -2 -28 -2 -40 0 -13 2 -5 4 17 4 22 1 32 -1 23 -4z m-161 -40 c-3 -10 -5 -4 -5 12 0 17 2 24 5 18 2 -7 2 -21 0 -30z m2316 30 c-13 -2 -35 -2 -50 0 -16 2 -5 4 22 4 28 0 40 -2 28 -4z m-1490 -10 c-46 -2 -120 -2 -165 0 -46 1 -9 3 82 3 91 0 128 -2 83 -3z m202 -3 c-3 -5 -12 -10 -18 -10 -7 0 -6 4 3 10 19 12 23 12 15 0z m303 3 c-10 -2 -26 -2 -35 0 -10 3 -2 5 17 5 19 0 27 -2 18 -5z m208 -6 c-15 -10 -156 -5 -156 5 0 5 38 7 84 6 46 -2 79 -6 72 -11z m49 3 c3 -5 -1 -10 -10 -10 -9 0 -13 5 -10 10 3 6 8 10 10 10 2 0 7 -4 10 -10z m1485 -11 c0 -6 -4 -7 -10 -4 -5 3 -10 11 -10 16 0 6 5 7 10 4 6 -3 10 -11 10 -16z m-5470 7 c0 -2 -7 -6 -15 -10 -8 -3 -15 -1 -15 4 0 6 7 10 15 10 8 0 15 -2 15 -4z m287 -2 c-3 -3 -12 -4 -19 -1 -8 3 -5 6 6 6 11 1 17 -2 13 -5z m96 -1 c-7 -2 -19 -2 -25 0 -7 3 -2 5 12 5 14 0 19 -2 13 -5z m794 1 c-3 -3 -12 -4 -19 -1 -8 3 -5 6 6 6 11 1 17 -2 13 -5z m46 -1 c-7 -2 -19 -2 -25 0 -7 3 -2 5 12 5 14 0 19 -2 13 -5z m1295 0 c-10 -2 -26 -2 -35 0 -10 3 -2 5 17 5 19 0 27 -2 18 -5z m-183 -125 c-2 -98 0 -115 16 -131 11 -10 19 -26 19 -37 0 -10 8 -20 18 -23 9 -2 -8 -5 -40 -8 -51 -4 -55 -2 -47 14 7 13 6 17 -5 17 -12 0 -14 10 -9 50 4 33 2 55 -7 65 -10 13 -9 15 8 15 17 0 20 9 27 75 4 41 10 75 14 75 4 0 7 -51 6 -112z m2628 92 c9 -11 12 -20 6 -20 -9 0 -10 -217 -4 -827 4 -456 8 -932 7 -1060 0 -190 2 -233 14 -237 15 -6 19 -42 5 -50 -12 -8 -303 -13 -1107 -21 -363 -4 -675 -9 -694 -10 -19 -2 -156 -3 -303 -4 -186 -1 -266 -4 -262 -12 8 -11 -116 -6 -147 6 -17 7 -18 70 -18 1121 l0 1114 78 1 c42 1 489 5 992 8 503 4 1028 8 1165 9 239 2 251 1 268 -18z m-3373 -797 c1 -439 2 -944 3 -1122 l3 -324 -571 6 c-313 4 -874 10 -1245 13 -371 4 -681 10 -688 13 -10 6 -12 183 -10 927 2 505 3 1001 3 1102 l0 182 1253 0 1252 0 0 -797z m294 771 c5 -20 11 -24 29 -19 17 5 19 4 7 -4 -13 -9 -13 -14 -2 -31 13 -22 8 -60 -9 -60 -14 0 -11 -17 8 -35 9 -10 17 -31 17 -49 -1 -83 -8 -166 -15 -166 -4 0 -9 -10 -11 -22 -2 -15 -11 -24 -25 -26 -22 -3 -23 0 -24 60 -1 35 -3 86 -4 113 -4 77 7 265 15 265 4 0 11 -12 14 -26z m404 -30 c8 -31 11 -58 8 -62 -3 -3 -6 0 -6 7 0 8 -5 9 -19 2 -16 -9 -20 -7 -25 13 -3 14 -3 33 1 43 6 14 9 11 14 -17 l6 -35 2 43 c0 27 -3 41 -9 37 -5 -3 -10 1 -10 9 0 9 6 16 13 16 7 0 18 -24 25 -56z m3169 4 c-3 -8 -6 -5 -6 6 -1 11 2 17 5 13 3 -3 4 -12 1 -19z m-3670 -65 c-3 -10 -5 -4 -5 12 0 17 2 24 5 18 2 -7 2 -21 0 -30z m604 -131 c-7 -12 -9 3 -7 53 5 99 9 111 13 32 2 -37 -1 -75 -6 -85z m2596 106 c-3 -7 -5 -2 -5 12 0 14 2 19 5 13 2 -7 2 -19 0 -25z m-2732 2 c3 -5 1 -10 -4 -10 -6 0 -11 5 -11 10 0 6 2 10 4 10 3 0 8 -4 11 -10z m19 -164 c-6 -17 30 -28 66 -19 24 5 24 5 5 -10 -16 -13 -18 -18 -7 -28 10 -11 12 -10 12 5 0 13 5 16 23 10 36 -11 47 -42 27 -74 -7 -11 -10 -7 -10 17 0 17 -4 34 -9 37 -11 7 -43 -29 -40 -46 2 -7 -2 -23 -9 -35 -17 -31 -12 -205 6 -191 6 6 12 7 12 2 0 -5 5 -2 11 6 11 16 6 -83 -10 -175 l-8 -50 -2 58 c0 35 -5 57 -12 57 -9 0 -10 -21 -6 -70 3 -39 2 -72 -4 -75 -5 -4 -10 19 -10 52 -1 32 -4 48 -6 36 -7 -38 -26 -27 -20 11 4 26 1 36 -10 40 -13 6 -15 0 -10 -37 3 -23 2 -48 -2 -56 -5 -8 -10 1 -13 26 -11 79 10 229 33 244 10 6 10 9 2 9 -18 0 -18 181 -1 198 8 8 9 12 1 12 -6 0 -19 8 -28 17 -16 16 -16 17 1 30 22 16 25 16 18 -1z m-607 -43 c-3 -10 -5 -4 -5 12 0 17 2 24 5 18 2 -7 2 -21 0 -30z m-13 -57 c4 -38 9 -81 12 -95 5 -24 4 -25 -7 -6 -12 18 -27 186 -16 175 2 -3 7 -36 11 -74z m3787 -3 c0 -25 1 -26 9 -8 6 14 9 -1 9 -47 1 -38 -3 -68 -7 -68 -5 0 -7 20 -6 45 1 26 -1 43 -7 40 -5 -4 -9 -72 -9 -152 0 -81 3 -143 7 -140 9 9 33 -49 33 -79 0 -13 -4 -24 -9 -24 -5 0 -12 -10 -14 -22 -2 -13 -5 9 -7 47 -1 52 -4 63 -10 45 -5 -14 -8 63 -9 183 -1 132 3 207 9 207 6 0 10 -12 11 -27z m139 7 c0 -11 -4 -20 -9 -20 -5 0 -7 9 -4 20 3 11 7 20 9 20 2 0 4 -9 4 -20z m-3320 -21 c0 -11 -4 -18 -10 -14 -5 3 -7 12 -3 20 7 21 13 19 13 -6z m147 -119 c2 -50 0 -80 -7 -80 -6 0 -10 34 -10 87 0 107 13 101 17 -7z m-3400 58 c-3 -8 -6 -5 -6 6 -1 11 2 17 5 13 3 -3 4 -12 1 -19z m6563 18 c0 -3 -4 -8 -10 -11 -5 -3 -10 -1 -10 4 0 6 5 11 10 11 6 0 10 -2 10 -4z m-13 -88 c-2 -13 -4 -5 -4 17 -1 22 1 32 4 23 2 -10 2 -28 0 -40z m-3870 -25 c-3 -10 -5 -2 -5 17 0 19 2 27 5 18 2 -10 2 -26 0 -35z m565 25 c-7 -7 -12 -8 -12 -2 0 14 12 26 19 19 2 -3 -1 -11 -7 -17z m-3635 -25 c-3 -10 -5 -4 -5 12 0 17 2 24 5 18 2 -7 2 -21 0 -30z m393 12 c0 -8 -2 -15 -4 -15 -2 0 -6 7 -10 15 -3 8 -1 15 4 15 6 0 10 -7 10 -15z m6079 -110 c-1 -80 -14 -102 -21 -34 -5 53 2 109 13 109 4 0 8 -34 8 -75z m358 43 c-3 -8 -6 -5 -6 6 -1 11 2 17 5 13 3 -3 4 -12 1 -19z m-3526 -50 c-6 -13 -10 -18 -11 -13 0 6 -5 3 -11 -5 -8 -12 -9 -10 -5 10 3 14 6 33 6 43 0 16 2 17 15 3 11 -11 12 -21 6 -38z m-253 -59 c-7 -5 -17 -4 -22 1 -10 10 2 32 15 25 5 -4 10 13 11 37 l2 43 3 -49 c3 -33 0 -52 -9 -57z m29 39 c-3 -7 -5 -2 -5 12 0 14 2 19 5 13 2 -7 2 -19 0 -25z m712 -620 c-1 -359 -5 -642 -9 -628 -9 29 -17 15 -23 -40 -2 -19 -5 39 -5 130 -1 91 2 181 8 200 5 19 7 44 3 55 -8 22 -16 -7 -34 -125 -14 -87 -14 -89 -1 -208 11 -99 11 -105 -8 -120 -19 -17 -19 -17 1 -41 17 -21 23 -23 40 -13 26 17 29 15 29 -11 0 -20 -5 -23 -42 -22 -24 0 -46 -4 -50 -10 -5 -7 -14 -6 -27 2 -20 12 -61 7 -61 -8 0 -5 -9 -9 -19 -9 -14 0 -18 5 -14 19 3 12 11 17 23 14 10 -3 21 0 24 6 5 7 -3 11 -20 11 -15 0 -24 3 -21 7 4 3 22 6 41 5 29 -1 36 3 46 28 16 38 2 62 -16 29 l-13 -24 -2 25 c-1 14 -2 42 -2 62 0 20 -4 35 -9 32 -4 -3 -8 21 -8 52 0 51 2 56 14 39 12 -17 14 -14 20 30 6 35 10 45 17 34 7 -9 7 -1 3 26 -7 44 -14 58 -14 31 0 -9 -4 -15 -9 -12 -4 3 -6 17 -3 32 3 19 7 22 13 12 6 -9 9 -4 10 17 1 17 3 59 5 95 1 36 3 89 3 118 1 40 5 52 17 52 10 0 13 6 10 18 -3 9 -2 31 3 47 8 25 9 26 10 8 1 -31 21 -29 21 1 0 14 4 27 9 30 27 17 31 234 5 249 -15 8 -19 39 -7 51 4 3 8 13 9 20 1 7 5 23 8 34 4 11 2 23 -3 27 -7 4 -7 14 -1 31 6 14 10 67 10 119 0 84 5 125 16 125 2 0 3 -294 3 -652z m-539 622 c0 -5 -5 -10 -11 -10 -5 0 -7 5 -4 10 3 6 8 10 11 10 2 0 4 -4 4 -10z m3120 -67 c0 -31 -2 -54 -5 -51 -10 9 -9 108 0 108 3 0 5 -25 5 -57z m93 -63 c3 -34 2 -47 -3 -35 -8 19 -14 103 -6 94 2 -2 6 -29 9 -59z m-3426 8 c-3 -7 -5 -2 -5 12 0 14 2 19 5 13 2 -7 2 -19 0 -25z m3330 -50 c-3 -8 -6 -5 -6 6 -1 11 2 17 5 13 3 -3 4 -12 1 -19z m-5977 -80 c-1 -48 -3 -59 -11 -45 -5 9 -8 36 -5 60 6 51 5 47 11 47 3 0 5 -28 5 -62z m6492 44 c3 -9 1 -26 -3 -37 -6 -15 -8 -11 -8 18 -1 40 4 48 11 19z m-3223 -306 c-8 -8 -10 -3 -7 21 3 18 0 31 -6 30 -6 -1 -9 20 -7 53 1 30 2 70 2 88 -1 20 3 31 9 27 6 -4 11 14 12 47 1 29 4 -16 5 -101 3 -107 0 -158 -8 -165z m42 267 c-9 -16 -10 -15 -11 8 0 14 3 29 8 33 12 12 14 -22 3 -41z m2769 21 c0 -14 -4 -23 -9 -20 -5 3 -7 15 -4 26 7 28 13 25 13 -6z m387 -21 c-3 -10 -5 -2 -5 17 0 19 2 27 5 18 2 -10 2 -26 0 -35z m-487 21 c0 -8 -4 -12 -10 -9 -5 3 -10 10 -10 16 0 5 5 9 10 9 6 0 10 -7 10 -16z m454 0 c3 -8 2 -12 -4 -9 -6 3 -10 10 -10 16 0 14 7 11 14 -7z m-457 -56 c-3 -8 -6 -5 -6 6 -1 11 2 17 5 13 3 -3 4 -12 1 -19z m-2838 -73 c0 -47 -4 -85 -10 -85 -5 0 -9 17 -9 39 0 40 11 131 15 131 2 0 3 -38 4 -85z m198 23 c-2 -13 -4 -5 -4 17 -1 22 1 32 4 23 2 -10 2 -28 0 -40z m-3947 32 c0 -5 -7 -10 -15 -10 -8 0 -15 5 -15 10 0 6 7 10 15 10 8 0 15 -4 15 -10z m3636 -78 c-12 -11 -16 6 -9 39 l8 34 3 -33 c2 -19 1 -36 -2 -40z m281 1 c-3 -10 -5 -2 -5 17 0 19 2 27 5 18 2 -10 2 -26 0 -35z m-3310 -40 c-3 -10 -5 -2 -5 17 0 19 2 27 5 18 2 -10 2 -26 0 -35z m2663 -3 c0 -5 -5 -10 -11 -10 -5 0 -7 5 -4 10 3 6 8 10 11 10 2 0 4 -4 4 -10z m647 -57 c-2 -16 -4 -5 -4 22 0 28 2 40 4 28 2 -13 2 -35 0 -50z m3120 15 c-3 -8 -6 -5 -6 6 -1 11 2 17 5 13 3 -3 4 -12 1 -19z m30 -30 c-3 -7 -5 -2 -5 12 0 14 2 19 5 13 2 -7 2 -19 0 -25z m-3610 -10 c-3 -8 -6 -5 -6 6 -1 11 2 17 5 13 3 -3 4 -12 1 -19z m286 15 c-7 -2 -19 -2 -25 0 -7 3 -2 5 12 5 14 0 19 -2 13 -5z m3324 -45 c-3 -8 -6 -5 -6 6 -1 11 2 17 5 13 3 -3 4 -12 1 -19z m-430 -20 c-3 -8 -6 -5 -6 6 -1 11 2 17 5 13 3 -3 4 -12 1 -19z m-3100 -60 c-2 -13 -4 -3 -4 22 0 25 2 35 4 23 2 -13 2 -33 0 -45z m180 40 c-3 -8 -6 -5 -6 6 -1 11 2 17 5 13 3 -3 4 -12 1 -19z m36 -100 c-1 -68 -2 -208 -2 -312 -1 -104 -3 -187 -6 -185 -2 3 -5 138 -6 301 -1 253 2 318 14 318 2 0 2 -55 0 -122z m126 108 c9 -10 8 -15 -4 -20 -10 -4 -15 1 -15 14 0 24 4 25 19 6z m68 -8 c-3 -8 -6 -5 -6 6 -1 11 2 17 5 13 3 -3 4 -12 1 -19z m-3340 -40 c-2 -13 -4 -5 -4 17 -1 22 1 32 4 23 2 -10 2 -28 0 -40z m2640 10 c-3 -7 -5 -2 -5 12 0 14 2 19 5 13 2 -7 2 -19 0 -25z m3840 10 c-3 -8 -6 -5 -6 6 -1 11 2 17 5 13 3 -3 4 -12 1 -19z m-3630 -10 c-3 -8 -6 -5 -6 6 -1 11 2 17 5 13 3 -3 4 -12 1 -19z m3650 -20 c-3 -7 -5 -2 -5 12 0 14 2 19 5 13 2 -7 2 -19 0 -25z m-3226 -104 c-1 -65 -7 -123 -12 -129 -6 -6 -9 38 -7 123 2 77 7 131 12 129 6 -2 9 -54 7 -123z m2819 81 c0 -5 -5 -3 -10 5 -5 8 -10 20 -10 25 0 6 5 3 10 -5 5 -8 10 -19 10 -25z m387 3 c-3 -7 -5 -2 -5 12 0 14 2 19 5 13 2 -7 2 -19 0 -25z m-427 -22 c0 -8 -4 -18 -10 -21 -5 -3 -10 3 -10 14 0 12 5 21 10 21 6 0 10 -6 10 -14z m47 -30 c-2 -6 -1 -20 4 -31 6 -16 8 -13 8 15 1 22 4 31 11 24 15 -15 16 -182 1 -197 -9 -9 -14 -8 -21 3 -8 13 -10 12 -10 -2 0 -10 -6 -18 -14 -18 -12 0 -14 20 -14 102 0 60 5 107 12 114 13 14 29 7 23 -10z m-2800 -8 c-3 -8 -6 -5 -6 6 -1 11 2 17 5 13 3 -3 4 -12 1 -19z m3200 -10 c-3 -8 -6 -5 -6 6 -1 11 2 17 5 13 3 -3 4 -12 1 -19z m-297 -16 c0 -9 -5 -24 -10 -32 -7 -11 -10 -5 -10 23 0 23 4 36 10 32 6 -3 10 -14 10 -23z m-3593 -24 c-3 -8 -6 -5 -6 6 -1 11 2 17 5 13 3 -3 4 -12 1 -19z m3587 -108 c1 -74 -7 -87 -36 -58 -19 19 -24 38 -9 38 5 0 11 19 15 42 14 85 28 75 30 -22z m-167 48 c-3 -8 -6 -5 -6 6 -1 11 2 17 5 13 3 -3 4 -12 1 -19z m420 -20 c-3 -8 -6 -5 -6 6 -1 11 2 17 5 13 3 -3 4 -12 1 -19z m-3420 -20 c-3 -8 -6 -5 -6 6 -1 11 2 17 5 13 3 -3 4 -12 1 -19z m3440 -295 c-1 -54 -3 -12 -3 92 0 105 2 149 3 98 2 -51 2 -136 0 -190z m-6467 240 c-1 -24 -2 -26 -11 -10 -5 9 -7 22 -4 27 10 17 15 11 15 -17z m3107 5 c-3 -8 -6 -5 -6 6 -1 11 2 17 5 13 3 -3 4 -12 1 -19z m3386 -187 c-5 -128 -13 -91 -12 55 2 106 4 125 9 79 3 -33 5 -93 3 -134z m-3584 124 c0 -5 -4 -3 -9 5 -5 8 -9 22 -9 30 0 16 17 -16 18 -35z m3078 -32 c-2 -16 -4 -5 -4 22 0 28 2 40 4 28 2 -13 2 -35 0 -50z m-3049 -14 l-3 -54 -5 62 c-3 34 -1 58 3 54 5 -4 7 -32 5 -62z m153 28 c-8 -8 -11 -3 -11 19 1 25 2 27 11 11 8 -14 8 -22 0 -30z m-3291 29 c0 -3 -4 -8 -10 -11 -5 -3 -10 -1 -10 4 0 6 5 11 10 11 6 0 10 -2 10 -4z m6367 -18 c-3 -8 -6 -5 -6 6 -1 11 2 17 5 13 3 -3 4 -12 1 -19z m93 -8 c0 -5 -5 -10 -11 -10 -5 0 -7 5 -4 10 3 6 8 10 11 10 2 0 4 -4 4 -10z m-3340 -71 c0 -52 -3 -70 -12 -67 -15 5 -28 92 -17 110 4 7 9 4 12 -8 3 -13 5 -11 6 9 0 15 3 27 6 27 3 0 5 -32 5 -71z m3525 -117 c-11 -11 -12 6 -6 93 l6 90 3 -89 c2 -49 0 -91 -3 -94z m-3348 136 c-3 -7 -5 -2 -5 12 0 14 2 19 5 13 2 -7 2 -19 0 -25z m2986 12 c-3 -13 -14 -20 -29 -20 -28 0 -33 26 -6 33 34 9 40 7 35 -13z m107 -3 c0 6 7 14 16 17 14 5 15 4 4 -9 -9 -11 -11 -36 -6 -93 8 -90 9 -493 1 -500 -6 -6 -34 28 -35 41 0 5 5 5 10 2 6 -4 10 11 8 41 -1 42 -3 45 -15 28 -12 -16 -13 -8 -8 59 2 42 10 85 16 95 7 12 9 30 4 48 -7 26 -8 27 -16 9 -5 -13 -8 6 -6 54 1 53 -2 75 -11 78 -10 4 -13 -35 -13 -184 0 -258 -1 -317 -6 -270 -2 20 -8 37 -14 37 -9 0 -13 -27 -10 -62 1 -10 -2 -18 -7 -18 -5 0 -9 16 -10 36 -1 20 -9 48 -18 62 -10 15 -13 27 -7 29 6 2 7 19 2 46 -4 23 -4 44 1 47 11 8 18 70 8 76 -5 3 -5 11 0 17 16 20 9 92 -8 92 -11 0 -15 11 -15 40 -1 22 -4 45 -8 52 -12 19 25 85 45 80 9 -3 19 0 21 7 3 8 9 7 20 -3 15 -12 17 -11 18 10 1 13 0 33 -1 44 -2 20 -2 20 19 1 12 -11 21 -14 21 -9z m-2953 -19 c-3 -7 -5 -2 -5 12 0 14 2 19 5 13 2 -7 2 -19 0 -25z m2750 -70 c-2 -18 -4 -6 -4 27 0 33 2 48 4 33 2 -15 2 -42 0 -60z m-2731 15 c-10 -10 -19 5 -10 18 6 11 8 11 12 0 2 -7 1 -15 -2 -18z m2731 -115 c-2 -13 -4 -5 -4 17 -1 22 1 32 4 23 2 -10 2 -28 0 -40z m50 20 c-3 -8 -6 -5 -6 6 -1 11 2 17 5 13 3 -3 4 -12 1 -19z m-2900 -55 c-2 -16 -4 -5 -4 22 0 28 2 40 4 28 2 -13 2 -35 0 -50z m3350 45 c-3 -8 -6 -5 -6 6 -1 11 2 17 5 13 3 -3 4 -12 1 -19z m-40 -20 c-3 -7 -5 -2 -5 12 0 14 2 19 5 13 2 -7 2 -19 0 -25z m-7 -38 c0 -11 -4 -20 -9 -20 -5 0 -7 9 -4 20 3 11 7 20 9 20 2 0 4 -9 4 -20z m97 4 c-3 -3 -12 -4 -19 -1 -8 3 -5 6 6 6 11 1 17 -2 13 -5z m-6967 -25 c0 -11 -4 -17 -10 -14 -5 3 -10 13 -10 21 0 8 5 14 10 14 6 0 10 -9 10 -21z m6970 7 c0 -3 -4 -8 -10 -11 -5 -3 -10 -1 -10 4 0 6 5 11 10 11 6 0 10 -2 10 -4z m-3153 -38 c-3 -8 -6 -5 -6 6 -1 11 2 17 5 13 3 -3 4 -12 1 -19z m2603 -60 c0 -63 -12 -73 -17 -15 -3 34 4 77 12 77 3 0 5 -28 5 -62z m190 52 c0 -5 -5 -10 -11 -10 -5 0 -7 5 -4 10 3 6 8 10 11 10 2 0 4 -4 4 -10z m-3560 -36 c0 -8 -4 -14 -10 -14 -5 0 -10 9 -10 21 0 11 5 17 10 14 6 -3 10 -13 10 -21z m27 -51 c-3 -10 -5 -2 -5 17 0 19 2 27 5 18 2 -10 2 -26 0 -35z m3800 5 c-3 -7 -5 -2 -5 12 0 14 2 19 5 13 2 -7 2 -19 0 -25z m0 -265 c-1 -43 -3 -10 -3 72 0 83 2 118 3 78 2 -40 2 -107 0 -150z m50 180 c-3 -10 -5 -4 -5 12 0 17 2 24 5 18 2 -7 2 -21 0 -30z m-70 -5 c-3 -7 -5 -2 -5 12 0 14 2 19 5 13 2 -7 2 -19 0 -25z m50 -70 c-2 -18 -4 -6 -4 27 0 33 2 48 4 33 2 -15 2 -42 0 -60z m-3110 50 c-3 -8 -6 -5 -6 6 -1 11 2 17 5 13 3 -3 4 -12 1 -19z m-700 -20 c-3 -7 -5 -2 -5 12 0 14 2 19 5 13 2 -7 2 -19 0 -25z m633 -118 c5 -88 0 -120 -21 -120 -4 0 -10 12 -13 28 -2 15 -3 -1 -2 -35 2 -59 1 -63 -20 -63 -18 0 -22 7 -27 41 -3 23 -2 51 3 63 6 15 9 6 9 -36 1 -34 5 -58 12 -58 6 0 9 43 8 126 -1 69 2 128 5 131 3 4 7 -25 7 -63 1 -53 3 -62 9 -39 14 55 11 122 -5 129 -8 3 -15 12 -15 21 0 11 5 10 23 -7 19 -20 23 -37 27 -118z m2303 123 c-7 -2 -21 -2 -30 0 -10 3 -4 5 12 5 17 0 24 -2 18 -5z m81 -2 c3 -4 -6 -6 -19 -3 -14 2 -25 6 -25 8 0 8 39 4 44 -5z m89 2 c-7 -2 -19 -2 -25 0 -7 3 -2 5 12 5 14 0 19 -2 13 -5z m724 -15 c-3 -8 -6 -5 -6 6 -1 11 2 17 5 13 3 -3 4 -12 1 -19z m-2484 -17 c10 -11 -1 -12 -58 -7 -198 18 -218 19 -210 6 6 -10 0 -12 -25 -7 -18 4 -46 7 -62 7 -16 0 -27 4 -24 9 9 14 364 7 379 -8z m2289 -18 c3 -21 3 -40 1 -43 -8 -9 -23 25 -23 53 0 40 17 33 22 -10z m-2235 21 c-3 -3 -12 -4 -19 -1 -8 3 -5 6 6 6 11 1 17 -2 13 -5z m78 -4 c3 -5 -1 -10 -9 -10 -9 0 -16 5 -16 10 0 6 4 10 9 10 6 0 13 -4 16 -10z m72 4 c-3 -3 -12 -4 -19 -1 -8 3 -5 6 6 6 11 1 17 -2 13 -5z m1681 -11 c-10 -2 -26 -2 -35 0 -10 3 -2 5 17 5 19 0 27 -2 18 -5z m-1351 -9 c-3 -3 -12 -4 -19 -1 -8 3 -5 6 6 6 11 1 17 -2 13 -5z m393 -2 c0 -5 -63 -8 -140 -9 -77 -1 -140 2 -140 7 0 4 63 8 140 8 77 1 140 -2 140 -6z m373 1 c-13 -2 -33 -2 -45 0 -13 2 -3 4 22 4 25 0 35 -2 23 -4z m-1073 -14 c-30 -4 -82 -8 -115 -8 -33 0 -79 -1 -102 -1 -23 0 -44 4 -48 10 -4 7 47 10 157 9 126 -1 150 -3 108 -10z m178 6 c-8 -8 -98 -9 -105 -1 -4 3 20 6 52 6 32 0 56 -2 53 -5z m70 -2 c-10 -2 -26 -2 -35 0 -10 3 -2 5 17 5 19 0 27 -2 18 -5z m155 0 c-7 -2 -19 -2 -25 0 -7 3 -2 5 12 5 14 0 19 -2 13 -5z m350 0 c-7 -2 -19 -2 -25 0 -7 3 -2 5 12 5 14 0 19 -2 13 -5z m1504 -70 c-2 -16 -4 -5 -4 22 0 28 2 40 4 28 2 -13 2 -35 0 -50z m-5830 51 c-3 -3 -12 -4 -19 -1 -8 3 -5 6 6 6 11 1 17 -2 13 -5z m76 -1 c-7 -2 -19 -2 -25 0 -7 3 -2 5 12 5 14 0 19 -2 13 -5z m944 1 c-3 -3 -12 -4 -19 -1 -8 3 -5 6 6 6 11 1 17 -2 13 -5z m196 -1 c-7 -2 -19 -2 -25 0 -7 3 -2 5 12 5 14 0 19 -2 13 -5z m322 -3 c3 -5 1 -10 -4 -10 -6 0 -11 5 -11 10 0 6 2 10 4 10 3 0 8 -4 11 -10z m2135 1 c0 -15 -16 -22 -34 -15 -25 9 -19 24 9 24 14 0 25 -4 25 -9z m1980 -29 c0 -4 -6 -14 -12 -21 -11 -10 -10 -11 3 -6 13 5 18 -2 23 -30 8 -43 0 -60 -10 -21 -3 14 -12 26 -20 26 -14 0 -20 41 -7 53 9 10 23 9 23 -1z m-2185 -11 c-17 -7 -16 -9 10 -15 l28 -7 -32 -20 c-40 -24 -53 -24 -68 0 -11 17 -9 20 10 23 12 2 21 9 20 16 -2 7 8 12 25 11 23 0 24 -2 7 -8z m1705 -37 c0 -2 -7 -4 -15 -4 -8 0 -15 4 -15 10 0 5 7 7 15 4 8 -4 15 -8 15 -10z m297 -6 c-3 -8 -6 -5 -6 6 -1 11 2 17 5 13 3 -3 4 -12 1 -19z m-381 -9 l19 -22 -32 17 c-35 18 -41 26 -20 26 8 0 22 -10 33 -21z m354 -10 c0 -5 -4 -9 -10 -9 -5 0 -10 7 -10 16 0 8 5 12 10 9 6 -3 10 -10 10 -16z m-4410 -10 c0 -6 -4 -7 -10 -4 -5 3 -10 11 -10 16 0 6 5 7 10 4 6 -3 10 -11 10 -16z m1297 -46 c-3 -10 -5 -4 -5 12 0 17 2 24 5 18 2 -7 2 -21 0 -30z m1128 23 c12 -11 10 -13 -10 -13 -16 0 -22 4 -18 13 3 8 7 14 10 14 2 0 11 -6 18 -14z m-2419 -19 c0 -7 2 -21 3 -32 1 -16 3 -17 10 -6 8 12 12 12 25 2 22 -18 12 -30 -25 -29 -20 1 -28 5 -25 14 3 8 -3 18 -12 24 -12 8 -14 13 -4 16 6 3 12 13 12 22 0 17 14 8 16 -11z m1634 -23 c0 -8 -5 -12 -10 -9 -6 4 -8 11 -5 16 9 14 15 11 15 -7z m852 -16 c-21 -22 -23 -22 -39 -4 -17 17 -17 18 3 12 13 -4 26 -1 34 9 7 9 15 13 18 10 3 -3 -4 -15 -16 -27z m-902 7 c0 -8 -4 -15 -10 -15 -5 0 -10 7 -10 15 0 8 5 15 10 15 6 0 10 -7 10 -15z m-1610 -36 c0 -23 -35 -27 -43 -5 -4 10 -1 13 9 9 9 -3 14 1 14 12 0 9 5 13 10 10 6 -3 10 -15 10 -26z m-133 -5 c-3 -3 -12 -4 -19 -1 -8 3 -5 6 6 6 11 1 17 -2 13 -5z m190 -10 c-3 -3 -12 -4 -19 -1 -8 3 -5 6 6 6 11 1 17 -2 13 -5z m810 0 c-3 -3 -12 -4 -19 -1 -8 3 -5 6 6 6 11 1 17 -2 13 -5z m1506 -11 c-15 -5 -17 -23 -4 -23 5 0 17 7 25 15 12 12 36 15 106 14 50 -1 88 -4 85 -8 -4 -3 -21 -7 -38 -7 -18 -1 -46 -6 -64 -12 -26 -8 -31 -8 -26 4 3 9 -1 14 -12 14 -9 0 -14 -4 -11 -9 8 -12 -18 -21 -56 -21 -60 0 -20 -10 57 -15 80 -5 108 1 84 16 -16 10 -2 10 191 11 l125 1 -112 6 c-61 3 -114 9 -118 12 -5 5 239 4 265 -1 3 -1 -4 -5 -15 -10 -13 -6 24 -10 105 -11 l125 -3 -140 -6 c-212 -9 -68 -13 394 -10 320 1 402 -1 395 -11 -5 -9 -2 -10 12 -3 26 12 404 16 404 4 0 -6 -5 -10 -11 -10 -5 0 -7 -4 -4 -10 3 -5 -2 -10 -11 -10 -10 0 -14 -3 -10 -7 4 -5 13 -8 19 -8 17 0 8 -47 -11 -61 -8 -6 -12 -16 -8 -22 4 -7 2 -12 -3 -12 -6 0 -11 -7 -11 -15 0 -10 -10 -15 -30 -15 -16 0 -30 5 -30 11 0 7 -9 9 -22 6 -21 -5 -21 -5 -5 7 25 19 21 26 -15 26 -26 0 -30 3 -18 11 11 7 3 9 -30 5 -117 -13 -270 -18 -270 -9 0 6 67 13 159 17 102 4 179 13 213 23 31 10 46 18 36 20 -10 3 -18 9 -18 14 0 5 -7 9 -16 9 -10 0 -14 6 -10 15 4 10 -1 15 -16 15 -17 0 -18 -2 -8 -15 7 -8 10 -15 7 -15 -3 0 -13 -3 -23 -7 -12 -4 -15 -3 -10 5 5 8 -1 12 -18 12 -16 0 -26 -6 -26 -15 0 -12 -14 -15 -69 -15 -39 0 -73 -4 -76 -10 -3 -5 -18 -10 -33 -11 l-27 -1 25 -8 c23 -7 21 -8 -12 -9 -31 -1 -35 2 -31 19 3 11 0 20 -6 20 -6 0 -11 -6 -11 -12 0 -9 -3 -9 -9 1 -5 8 -16 11 -25 8 -8 -3 -22 0 -30 8 -8 8 -25 15 -38 14 -23 -1 -23 -1 2 -9 22 -6 23 -8 8 -15 -10 -4 -25 -4 -34 -1 -8 3 -24 -2 -34 -12 -23 -21 -109 -45 -162 -46 -23 0 -38 -5 -38 -12 0 -6 -11 -11 -25 -11 -19 0 -25 4 -23 16 2 9 10 16 18 17 8 1 34 2 58 2 43 2 50 15 12 25 -11 3 -18 1 -14 -4 3 -5 -4 -9 -15 -9 -12 0 -21 6 -22 13 0 10 -2 10 -6 0 -6 -16 -45 -17 -61 -1 -9 9 -12 9 -12 0 0 -15 -203 -4 -209 11 -2 5 -7 4 -11 -3 -10 -17 -165 -17 -185 0 -11 9 -15 9 -15 1 0 -12 -95 -9 -108 3 -3 3 -11 1 -17 -4 -14 -12 -201 -17 -212 -7 -3 4 18 7 47 7 29 0 51 2 48 5 -2 3 -63 6 -134 6 -71 1 -118 5 -104 8 l25 7 -25 7 c-14 4 -43 6 -65 5 l-40 -1 40 -7 40 -7 -35 -2 c-29 -2 -32 -4 -15 -11 14 -6 2 -9 -42 -9 -36 -1 -63 3 -65 10 -2 7 -19 8 -53 3 l-50 -9 50 -6 50 -6 -52 -1 c-32 -1 -53 -7 -53 -13 0 -7 11 -9 30 -5 54 10 197 16 170 7 l-25 -9 25 -2 c22 -1 23 -2 6 -9 -17 -6 -16 -9 11 -20 21 -8 64 -11 137 -7 66 3 104 1 101 -4 -4 -6 1 -10 10 -10 9 0 13 5 9 11 -5 9 35 10 149 7 86 -3 154 -1 151 4 -3 4 -30 8 -60 8 -30 0 -54 5 -54 10 0 6 58 10 155 10 85 0 155 -4 155 -9 0 -14 -57 -21 -120 -14 -42 4 -60 2 -60 -6 0 -8 37 -11 121 -11 84 0 118 3 113 11 -3 6 -15 9 -25 6 -14 -4 -19 0 -19 16 0 13 4 17 8 11 4 -5 16 -11 27 -11 107 -3 153 -7 170 -14 17 -7 15 -9 -10 -8 -77 3 -96 -5 -30 -11 109 -12 197 -11 190 0 -3 6 1 10 10 10 9 0 14 -4 11 -9 -6 -9 49 -21 98 -21 24 0 27 2 16 15 -10 12 -10 15 4 15 9 0 16 -7 16 -15 0 -13 29 -15 197 -15 197 0 244 -5 123 -12 -36 -3 -75 -10 -87 -17 -17 -8 -23 -8 -23 -1 0 7 -6 10 -12 7 -7 -2 -12 -10 -10 -17 2 -11 0 -11 -11 -1 -11 9 -27 9 -62 1 -27 -6 -52 -7 -57 -2 -5 5 -31 6 -58 2 -27 -3 -51 -3 -52 0 -4 11 -48 23 -48 13 0 -4 -39 -7 -87 -6 -68 2 -82 1 -64 -7 26 -11 104 -17 259 -19 86 -1 92 -2 77 -17 -11 -12 -19 -13 -29 -5 -16 14 -228 13 -247 -1 -11 -8 -10 -9 4 -4 21 7 23 -12 1 -21 -13 -5 -13 -8 -2 -15 8 -6 -1 -7 -27 -3 -73 12 -228 6 -237 -8 -6 -9 -10 -9 -17 1 -4 8 -14 13 -22 12 -49 -7 -279 1 -274 10 4 6 -8 11 -27 11 l-33 2 35 6 c50 9 8 19 -45 10 -22 -3 -30 -7 -17 -8 12 0 22 -5 22 -11 0 -5 12 -11 28 -11 22 -1 19 -3 -12 -9 -81 -15 -167 13 -96 32 14 4 -51 5 -145 3 -93 -2 -149 0 -123 4 26 4 51 10 55 15 4 4 -8 5 -27 2 -19 -3 -59 -8 -89 -11 -30 -3 -63 -13 -75 -21 l-20 -14 20 0 c12 0 25 -10 32 -25 l11 -24 -276 -1 c-152 0 -274 2 -272 5 3 2 97 5 210 6 112 1 191 5 174 9 -21 6 -24 8 -9 9 12 0 35 -4 53 -10 17 -6 39 -8 49 -3 29 13 -52 23 -203 25 -96 1 -126 4 -95 9 31 5 -5 8 -110 10 -109 2 -140 5 -105 10 42 6 -1034 15 -1192 10 -32 -1 -53 3 -53 9 0 6 -9 11 -21 11 -11 0 -17 -4 -14 -10 9 -14 -29 -12 -43 2 -10 10 -15 10 -21 -1 -6 -9 -19 -12 -42 -7 -19 4 -42 7 -52 7 -9 0 -15 4 -12 9 3 6 -1 7 -9 4 -9 -3 -16 -2 -16 4 0 6 6 12 13 15 13 5 -35 27 -59 27 -19 0 -18 -17 2 -28 14 -8 14 -10 0 -21 -13 -11 -16 -11 -16 -1 0 10 -17 11 -65 8 -35 -3 -65 -2 -67 2 -2 4 -30 3 -63 -1 -90 -11 -177 -11 -170 1 4 6 -21 10 -67 11 -136 2 -223 9 -226 19 -2 6 -13 10 -25 9 -21 0 -21 -1 -2 -9 18 -8 18 -9 -5 -10 -14 -2 -29 -2 -34 -1 -4 1 -38 2 -73 3 -36 0 -70 6 -76 13 -6 6 -22 9 -36 7 -20 -3 -23 -2 -15 7 8 9 66 12 195 13 101 0 189 4 196 10 7 6 14 5 18 -2 3 -5 21 -10 38 -9 27 0 29 2 12 9 -13 5 25 8 100 8 78 0 108 -3 85 -8 l-35 -7 31 -2 c17 0 53 2 80 6 42 6 45 8 24 14 -23 6 -23 7 -3 8 12 1 25 -3 28 -9 9 -15 44 -12 61 5 9 8 26 15 38 15 24 0 96 26 96 35 0 2 -15 2 -32 -2 -18 -3 -29 -2 -25 3 4 4 20 10 35 12 15 2 29 6 32 9 5 6 -103 -6 -129 -14 -13 -4 -13 -3 -2 5 11 8 10 11 -5 14 -10 2 7 9 39 16 31 8 55 17 52 22 -2 4 67 8 155 9 98 1 160 -2 160 -8 0 -5 -12 -9 -27 -8 -22 2 -27 -2 -25 -16 2 -10 -7 -21 -23 -29 -34 -15 -32 -26 8 -30 28 -4 25 -5 -20 -12 -29 -5 -50 -12 -47 -17 3 -5 -3 -9 -12 -9 -10 0 -14 -3 -10 -7 7 -8 154 -23 251 -26 43 -1 59 1 57 10 -1 7 2 13 8 13 5 0 10 -3 10 -7 0 -9 49 -33 67 -33 7 0 13 5 13 10 0 6 12 10 26 10 14 0 23 -4 19 -10 -4 -6 38 -10 120 -10 90 0 124 3 119 11 -4 8 1 9 17 3 13 -5 42 -8 64 -8 29 1 35 0 20 -6 -18 -8 -17 -9 7 -9 15 -1 30 4 33 9 3 6 30 10 58 10 37 0 48 -3 37 -10 -12 -8 -9 -10 13 -10 16 0 26 4 23 9 -3 5 101 8 242 7 136 0 280 3 320 7 47 5 72 5 72 -2 0 -5 -21 -12 -47 -14 -27 -2 -7 -3 42 -4 50 0 73 2 52 4 -30 3 -37 8 -33 20 6 13 -5 15 -81 11 -49 -3 -97 -1 -108 3 -12 4 21 8 79 8 149 1 111 10 -52 12 -81 1 -139 6 -136 11 3 5 33 8 67 8 34 -1 76 3 92 8 21 6 -19 10 -140 12 -206 3 -245 5 -267 15 -11 4 -18 3 -18 -4 0 -6 -16 -11 -37 -10 l-38 1 35 11 c19 6 38 16 42 21 5 8 14 7 29 -3 20 -12 24 -11 35 4 10 13 20 16 41 10 15 -5 31 -8 36 -7 4 1 7 -5 7 -13 0 -8 7 -15 15 -15 12 0 10 6 -8 26 -19 20 -32 25 -68 24 -24 -1 -61 -2 -82 -2 -28 0 -37 -4 -33 -13 8 -23 -66 -37 -79 -15 -4 6 8 10 30 10 30 0 34 2 23 14 -18 19 -183 4 -191 -17 -2 -7 -3 -5 -2 4 2 14 -12 17 -109 18 -61 0 -167 4 -235 7 -114 6 -123 5 -117 -11 3 -9 6 -20 6 -25 0 -5 10 -11 23 -13 12 -2 -5 -5 -38 -5 -33 0 -54 2 -47 5 24 9 12 23 -20 22 -18 -1 -25 -3 -15 -6 20 -5 23 -22 5 -24 -7 -1 -29 0 -48 1 -45 2 -65 20 -24 21 17 1 22 3 11 6 -28 7 -9 23 28 23 42 0 55 17 18 23 -16 2 -2 5 30 6 31 0 57 6 57 11 0 6 10 10 23 9 21 0 21 -1 2 -9 -11 -5 -14 -9 -7 -9 7 -1 22 4 33 9 12 7 164 12 400 14 209 2 383 6 386 10 3 3 14 1 24 -5 14 -7 19 -6 19 3 0 8 3 9 8 3 10 -14 234 -16 225 -2 -4 7 0 8 12 3 26 -10 547 -8 557 2 5 5 -31 7 -79 6 -84 -1 -85 -1 -23 6 81 8 149 10 133 3z m687 -4 c0 -4 -40 -7 -90 -8 -53 -1 -90 2 -90 8 0 5 37 9 90 8 49 -1 90 -5 90 -8z m37 5 c-3 -3 -12 -4 -19 -1 -8 3 -5 6 6 6 11 1 17 -2 13 -5z m1171 -1 c-21 -2 -55 -2 -75 0 -21 2 -4 4 37 4 41 0 58 -2 38 -4z m-4899 -19 c2 -2 -34 -4 -80 -4 -55 0 -79 3 -69 10 13 8 139 3 149 -6z m626 5 c-16 -5 -88 -7 -159 -5 -114 4 -150 -3 -91 -17 11 -3 -29 -5 -89 -6 -164 -2 -120 -13 61 -16 87 -1 165 -3 173 -4 8 -1 65 1 125 5 77 4 107 3 100 -4 -9 -9 -268 -27 -345 -25 -14 1 -141 3 -282 5 -199 2 -260 6 -270 17 -11 11 0 12 70 6 57 -5 82 -4 82 4 0 6 7 11 16 11 9 0 12 -5 8 -11 -5 -9 1 -10 22 -5 16 4 32 12 35 17 3 6 10 9 15 8 22 -4 64 2 64 9 0 4 -33 7 -72 6 -65 -2 -67 -1 -23 5 79 11 595 11 560 0z m250 6 c-22 -8 -134 -11 -123 -3 7 4 40 7 73 7 33 0 56 -2 50 -4z m161 -10 c16 -8 22 -15 14 -15 -26 0 -60 12 -60 21 0 13 14 11 46 -6z m347 8 c-7 -2 -21 -2 -30 0 -10 3 -4 5 12 5 17 0 24 -2 18 -5z m1002 -3 c3 -5 -1 -10 -10 -10 -9 0 -13 5 -10 10 3 6 8 10 10 10 2 0 7 -4 10 -10z m373 3 c-21 -2 -55 -2 -75 0 -21 2 -4 4 37 4 41 0 58 -2 38 -4z m-3395 -10 c-7 -2 -21 -2 -30 0 -10 3 -4 5 12 5 17 0 24 -2 18 -5z m360 0 c-56 -2 -151 -2 -210 0 -59 1 -13 3 102 3 116 0 164 -2 108 -3z m4032 -11 c-3 -3 -11 0 -18 7 -9 10 -8 11 6 5 10 -3 15 -9 12 -12z m1072 2 c-3 -3 -12 -4 -19 -1 -8 3 -5 6 6 6 11 1 17 -2 13 -5z m-5050 -18 c3 -3 -70 -6 -163 -7 -104 0 -161 -4 -149 -9 15 -6 8 -9 -27 -9 -27 -1 -48 4 -48 9 0 6 -15 11 -32 12 -18 1 12 4 67 7 128 8 344 6 352 -3z m141 7 c-21 -2 -55 -2 -75 0 -21 2 -4 4 37 4 41 0 58 -2 38 -4z m575 0 c-18 -2 -48 -2 -65 0 -18 2 -4 4 32 4 36 0 50 -2 33 -4z m74 1 c-3 -3 -12 -4 -19 -1 -8 3 -5 6 6 6 11 1 17 -2 13 -5z m101 -1 c-10 -2 -26 -2 -35 0 -10 3 -2 5 17 5 19 0 27 -2 18 -5z m-1358 -18 c10 -13 9 -15 -8 -15 -15 0 -20 5 -16 15 4 8 7 15 9 15 1 0 8 -7 15 -15z m520 -8 c0 -8 -12 -14 -30 -14 -16 0 -30 4 -30 8 0 7 10 10 53 18 4 0 7 -5 7 -12z m-802 -4 c-10 -2 -26 -2 -35 0 -10 3 -2 5 17 5 19 0 27 -2 18 -5z m492 3 c0 -3 -4 -8 -10 -11 -5 -3 -10 -1 -10 4 0 6 5 11 10 11 6 0 10 -2 10 -4z m150 -4 c0 -4 -27 -8 -60 -8 -33 0 -60 3 -60 8 0 4 27 8 60 8 33 0 60 -3 60 -8z m88 -10 c3 -9 -3 -10 -23 -2 -15 6 -30 8 -35 5 -5 -3 -12 0 -15 6 -5 7 6 9 31 7 20 -2 39 -9 42 -16z m1739 -19 c3 -7 -4 -9 -16 -6 -12 3 -18 9 -15 15 7 11 26 6 31 -9z m-998 -9 c2 -2 -16 -4 -40 -4 -31 0 -40 3 -29 10 13 8 57 4 69 -6z m164 9 c-13 -2 -33 -2 -45 0 -13 2 -3 4 22 4 25 0 35 -2 23 -4z m687 -3 c0 -5 -4 -10 -9 -10 -6 0 -13 5 -16 10 -3 6 1 10 9 10 9 0 16 -4 16 -10z m93 3 c-7 -2 -21 -2 -30 0 -10 3 -4 5 12 5 17 0 24 -2 18 -5z m3247 -2 c0 -5 -7 -11 -15 -15 -15 -5 -20 5 -8 17 9 10 23 9 23 -2z m-4285 -11 c4 -6 -6 -10 -22 -10 -22 0 -25 2 -13 10 19 12 27 12 35 0z m180 1 c-3 -6 12 -12 32 -14 36 -3 36 -4 -8 -5 -35 -2 -46 2 -46 13 0 8 7 15 14 15 8 0 12 -4 8 -9z m988 2 c-7 -2 -19 -2 -25 0 -7 3 -2 5 12 5 14 0 19 -2 13 -5z m152 -11 c-3 -3 -11 0 -18 7 -9 10 -8 11 6 5 10 -3 15 -9 12 -12z m-1422 1 c-7 -2 -21 -2 -30 0 -10 3 -4 5 12 5 17 0 24 -2 18 -5z m1187 -9 c0 -2 -9 -4 -21 -4 -11 0 -18 4 -14 10 5 8 35 3 35 -6z m316 1 c-8 -8 -20 -15 -27 -15 -7 0 -4 6 7 15 25 19 40 19 20 0z m2764 5 c0 -5 -4 -10 -10 -10 -5 0 -10 5 -10 10 0 6 5 10 10 10 6 0 10 -4 10 -10z m-4617 -7 c-13 -2 -35 -2 -50 0 -16 2 -5 4 22 4 28 0 40 -2 28 -4z m54 1 c-3 -3 -12 -4 -19 -1 -8 3 -5 6 6 6 11 1 17 -2 13 -5z m71 -1 c-10 -2 -26 -2 -35 0 -10 3 -2 5 17 5 19 0 27 -2 18 -5z m1517 -3 c-3 -5 -11 -10 -16 -10 -6 0 -7 5 -4 10 3 6 11 10 16 10 6 0 7 -4 4 -10z m1503 3 c-16 -2 -40 -2 -55 0 -16 2 -3 4 27 4 30 0 43 -2 28 -4z m1177 -3 c25 -6 20 -8 -28 -9 -37 -1 -56 3 -52 9 7 11 36 11 80 0z m252 4 c-3 -3 -12 -4 -19 -1 -8 3 -5 6 6 6 11 1 17 -2 13 -5z m-3772 -14 c-31 -13 -195 -26 -250 -19 -44 5 -39 6 35 8 47 2 110 6 140 11 30 4 64 8 75 8 l20 1 -20 -9z m993 3 c-10 -2 -28 -2 -40 0 -13 2 -5 4 17 4 22 1 32 -1 23 -4z m130 0 c-10 -2 -28 -2 -40 0 -13 2 -5 4 17 4 22 1 32 -1 23 -4z m-1445 -20 c-7 -2 -19 -2 -25 0 -7 3 -2 5 12 5 14 0 19 -2 13 -5z m2912 -3 c-3 -5 -69 -9 -148 -9 -78 0 -144 -1 -147 -1 -26 -7 -60 -3 -60 6 0 9 47 13 180 13 106 0 179 -3 175 -9z m-1962 -7 c-7 -2 -19 -2 -25 0 -7 3 -2 5 12 5 14 0 19 -2 13 -5z m712 -3 c3 -5 -1 -10 -9 -10 -9 0 -16 5 -16 10 0 6 4 10 9 10 6 0 13 -4 16 -10z m158 3 c-7 -2 -19 -2 -25 0 -7 3 -2 5 12 5 14 0 19 -2 13 -5z m-516 -9 c-3 -3 -12 -4 -19 -1 -8 3 -5 6 6 6 11 1 17 -2 13 -5z m2378 -4 c18 -8 17 -9 -7 -9 -16 -1 -28 4 -28 9 0 12 8 12 35 0z m468 3 c-7 -2 -19 -2 -25 0 -7 3 -2 5 12 5 14 0 19 -2 13 -5z m-3173 -13 c19 -6 12 -8 -30 -9 -39 0 -51 2 -40 9 17 11 35 11 70 0z m3023 3 c-34 -2 -93 -2 -130 0 -37 2 -9 3 62 3 72 0 102 -1 68 -3z m-5006 -19 c-3 -3 -12 -4 -19 -1 -8 3 -5 6 6 6 11 1 17 -2 13 -5z m200 0 c-9 -9 -147 -13 -147 -4 0 4 35 8 77 9 43 1 74 -1 70 -5z m160 -5 c-11 -6 -32 -9 -47 -5 -17 3 -30 1 -32 -6 -2 -6 -15 -13 -28 -15 -24 -3 -24 -3 -5 12 11 9 16 14 10 12 -5 -2 -19 -1 -30 4 -13 5 12 8 65 8 65 0 81 -2 67 -10z m2486 4 c-13 -2 -35 -2 -50 0 -16 2 -5 4 22 4 28 0 40 -2 28 -4z m-2963 -13 c0 -5 -4 -10 -10 -10 -5 0 -10 5 -10 10 0 6 5 10 10 10 6 0 10 -4 10 -10z m5561 0 c21 0 -2 -18 -28 -22 -16 -3 -36 -9 -45 -13 -11 -4 -18 -3 -18 3 0 6 8 12 18 15 14 3 13 4 -3 4 -51 1 -56 7 -10 13 28 4 56 5 63 3 8 -1 18 -3 23 -3z m-5478 -7 c-7 -2 -19 -2 -25 0 -7 3 -2 5 12 5 14 0 19 -2 13 -5z m425 -10 c-10 -2 -28 -2 -40 0 -13 2 -5 4 17 4 22 1 32 -1 23 -4z m75 0 c-7 -2 -19 -2 -25 0 -7 3 -2 5 12 5 14 0 19 -2 13 -5z m4796 -19 c-8 -10 -5 -12 13 -10 13 2 31 7 41 11 10 4 21 5 24 1 4 -3 0 -6 -7 -6 -7 0 -18 -7 -24 -14 -6 -8 -23 -18 -39 -22 -22 -5 -26 -3 -22 9 4 8 -1 21 -9 30 -22 21 -20 25 9 19 20 -3 23 -7 14 -18z m-221 4 c-2 -7 8 -14 22 -16 14 -2 29 -8 34 -13 5 -5 -28 -8 -79 -7 -71 1 -83 4 -64 12 13 6 27 15 30 20 4 4 12 5 18 2 6 -4 11 -2 11 3 0 6 7 11 15 11 8 0 14 -6 13 -12z m-4125 -15 c-13 -2 -35 -2 -50 0 -16 2 -5 4 22 4 28 0 40 -2 28 -4z m3990 0 c-7 -2 -19 -2 -25 0 -7 3 -2 5 12 5 14 0 19 -2 13 -5z m760 0 c-7 -2 -21 -2 -30 0 -10 3 -4 5 12 5 17 0 24 -2 18 -5z m-5205 -10 c-10 -2 -26 -2 -35 0 -10 3 -2 5 17 5 19 0 27 -2 18 -5z m340 0 c-10 -2 -26 -2 -35 0 -10 3 -2 5 17 5 19 0 27 -2 18 -5z m4385 -10 c-7 -2 -21 -2 -30 0 -10 3 -4 5 12 5 17 0 24 -2 18 -5z m-480 -18 c1 -5 -14 -12 -33 -14 l-35 -4 35 -7 c32 -7 30 -7 -18 -9 -45 -1 -52 2 -50 17 2 9 11 19 21 22 31 8 77 6 80 -5z m177 6 c0 -34 -13 -41 -74 -41 -47 1 -57 3 -43 11 9 6 15 14 12 20 -4 5 -1 9 4 9 6 0 11 -7 11 -15 0 -24 57 -20 65 5 6 20 25 28 25 11z m-3132 -8 c-10 -2 -26 -2 -35 0 -10 3 -2 5 17 5 19 0 27 -2 18 -5z m230 0 c-32 -2 -84 -2 -115 0 -32 2 -6 3 57 3 63 0 89 -1 58 -3z m99 1 c-3 -3 -12 -4 -19 -1 -8 3 -5 6 6 6 11 1 17 -2 13 -5z m71 -1 c-10 -2 -28 -2 -40 0 -13 2 -5 4 17 4 22 1 32 -1 23 -4z m95 0 c-13 -2 -35 -2 -50 0 -16 2 -5 4 22 4 28 0 40 -2 28 -4z m70 0 c-7 -2 -19 -2 -25 0 -7 3 -2 5 12 5 14 0 19 -2 13 -5z m240 0 c-40 -2 -107 -2 -150 0 -43 1 -10 3 72 3 83 0 118 -2 78 -3z m130 0 c-7 -2 -19 -2 -25 0 -7 3 -2 5 12 5 14 0 19 -2 13 -5z m150 0 c-13 -2 -35 -2 -50 0 -16 2 -5 4 22 4 28 0 40 -2 28 -4z m694 1 c-3 -3 -12 -4 -19 -1 -8 3 -5 6 6 6 11 1 17 -2 13 -5z m1220 0 c-3 -3 -12 -4 -19 -1 -8 3 -5 6 6 6 11 1 17 -2 13 -5z m-1057 -13 c0 -5 10 -12 23 -14 12 -2 -5 -5 -38 -5 -33 0 -54 2 -47 5 6 2 10 9 6 14 -3 5 9 9 25 9 17 0 31 -4 31 -9z m1458 2 c-21 -2 -57 -2 -80 0 -24 2 -7 4 37 4 44 0 63 -2 43 -4z m-2585 -10 c-7 -2 -21 -2 -30 0 -10 3 -4 5 12 5 17 0 24 -2 18 -5z m304 1 c-3 -3 -12 -4 -19 -1 -8 3 -5 6 6 6 11 1 17 -2 13 -5z m76 -1 c-7 -2 -21 -2 -30 0 -10 3 -4 5 12 5 17 0 24 -2 18 -5z m862 -3 c-3 -5 -10 -10 -16 -10 -5 0 -9 5 -9 10 0 6 7 10 16 10 8 0 12 -4 9 -10z m-798 -16 c-3 -3 -12 -4 -19 -1 -8 3 -5 6 6 6 11 1 17 -2 13 -5z m581 -1 c-10 -2 -28 -2 -40 0 -13 2 -5 4 17 4 22 1 32 -1 23 -4z m499 1 c-3 -3 -12 -4 -19 -1 -8 3 -5 6 6 6 11 1 17 -2 13 -5z m1210 -17 c8 -9 -44 -9 -74 -1 -13 4 -23 10 -23 14 0 8 87 -4 97 -13z m40 17 c-3 -3 -12 -4 -19 -1 -8 3 -5 6 6 6 11 1 17 -2 13 -5z m-3464 -11 c-7 -2 -21 -2 -30 0 -10 3 -4 5 12 5 17 0 24 -2 18 -5z m2575 -8 c8 -8 -652 -5 -665 3 -6 4 140 6 325 4 184 -1 338 -4 340 -7z m622 5 c0 -5 -17 -10 -37 -9 -34 1 -35 2 -13 9 36 11 50 11 50 0z m795 0 c4 -6 -12 -10 -42 -10 -35 0 -44 3 -33 10 20 13 67 13 75 0z m-3686 -16 c2 -2 -37 -2 -85 -2 -66 1 -79 3 -49 8 36 6 124 2 134 -6z m1439 9 c-10 -2 -28 -2 -40 0 -13 2 -5 4 17 4 22 1 32 -1 23 -4z m875 0 c-7 -2 -19 -2 -25 0 -7 3 -2 5 12 5 14 0 19 -2 13 -5z m60 0 c-7 -2 -21 -2 -30 0 -10 3 -4 5 12 5 17 0 24 -2 18 -5z m620 0 c-13 -2 -35 -2 -50 0 -16 2 -5 4 22 4 28 0 40 -2 28 -4z m360 0 c-13 -2 -33 -2 -45 0 -13 2 -3 4 22 4 25 0 35 -2 23 -4z m90 0 c-13 -2 -33 -2 -45 0 -13 2 -3 4 22 4 25 0 35 -2 23 -4z m130 0 c-13 -2 -33 -2 -45 0 -13 2 -3 4 22 4 25 0 35 -2 23 -4z m-4590 -10 c-7 -2 -19 -2 -25 0 -7 3 -2 5 12 5 14 0 19 -2 13 -5z m274 1 c-3 -3 -12 -4 -19 -1 -8 3 -5 6 6 6 11 1 17 -2 13 -5z" fill="#858585"/>
<path d="M8482 3720 c0 -14 2 -19 5 -12 2 6 2 18 0 25 -3 6 -5 1 -5 -13z" fill="#858585"/>
<path d="M8482 3670 c0 -14 2 -19 5 -12 2 6 2 18 0 25 -3 6 -5 1 -5 -13z" fill="#858585"/>
<path d="M8502 3370 c0 -14 2 -19 5 -12 2 6 2 18 0 25 -3 6 -5 1 -5 -13z" fill="#858585"/>
<path d="M5322 4630 c0 -14 2 -19 5 -12 2 6 2 18 0 25 -3 6 -5 1 -5 -13z" fill="#858585"/>
<path d="M5425 4390 c-19 -8 -19 -9 3 -9 12 -1 22 4 22 9 0 6 -1 10 -2 9 -2 0 -12 -4 -23 -9z" fill="#858585"/>
<path d="M5290 4220 c0 -11 5 -20 10 -20 6 0 10 9 10 20 0 11 -4 20 -10 20 -5 0 -10 -9 -10 -20z" fill="#858585"/>
<path d="M8063 5205 c0 -33 2 -45 4 -27 2 18 2 45 0 60 -2 15 -4 0 -4 -33z" fill="#858585"/>
<path d="M8063 5090 c0 -30 2 -43 4 -27 2 15 2 39 0 55 -2 15 -4 2 -4 -28z" fill="#858585"/>
<path d="M8063 4960 c0 -36 2 -50 4 -32 2 17 2 47 0 65 -2 17 -4 3 -4 -33z" fill="#858585"/>
<path d="M8059 4713 c-2 -229 1 -447 6 -451 3 -3 5 124 5 281 0 158 -2 287 -5 287 -3 0 -5 -53 -6 -117z" fill="#858585"/>
<path d="M4803 5743 c9 -2 25 -2 35 0 9 3 1 5 -18 5 -19 0 -27 -2 -17 -5z" fill="#858585"/>
<path d="M4694 4835 c0 -88 2 -123 3 -77 2 46 2 118 0 160 -1 42 -3 5 -3 -83z" fill="#858585"/>
<path d="M4871 4574 c0 -11 3 -14 6 -6 3 7 2 16 -1 19 -3 4 -6 -2 -5 -13z" fill="#858585"/>
<path d="M4694 4395 c0 -55 1 -76 3 -47 2 29 2 74 0 100 -2 26 -3 2 -3 -53z" fill="#858585"/>
<path d="M4845 4452 c-5 -27 -3 -39 9 -48 9 -6 16 -19 16 -29 0 -17 1 -17 18 -2 10 10 24 17 30 17 7 0 12 15 12 33 0 37 -23 63 -57 65 -17 0 -22 -7 -28 -36z m44 -23 c-21 -13 -29 -11 -29 9 0 14 2 15 10 2 7 -12 10 -11 16 5 5 13 9 15 12 6 2 -7 -2 -17 -9 -22z" fill="#858585"/>
<path d="M4727 4424 c-4 -4 -7 -14 -7 -23 0 -11 3 -12 11 -4 6 6 10 16 7 23 -2 6 -7 8 -11 4z" fill="#858585"/>
<path d="M4780 4426 c0 -2 9 -6 20 -9 11 -3 20 -1 20 4 0 5 -9 9 -20 9 -11 0 -20 -2 -20 -4z" fill="#858585"/>
<path d="M4731 4274 c0 -11 3 -14 6 -6 3 7 2 16 -1 19 -3 4 -6 -2 -5 -13z" fill="#858585"/>
<path d="M4720 4200 c0 -5 5 -10 10 -10 6 0 10 5 10 10 0 6 -4 10 -10 10 -5 0 -10 -4 -10 -10z" fill="#858585"/>
<path d="M4712 4160 c0 -14 2 -19 5 -12 2 6 2 18 0 25 -3 6 -5 1 -5 -13z" fill="#858585"/>
<path d="M4771 3624 c0 -11 3 -14 6 -6 3 7 2 16 -1 19 -3 4 -6 -2 -5 -13z" fill="#858585"/>
<path d="M4830 3191 c0 -17 5 -33 10 -36 6 -4 10 8 10 29 0 20 -4 36 -10 36 -5 0 -10 -13 -10 -29z" fill="#858585"/>
<path d="M4895 1680 c-3 -5 -1 -10 4 -10 6 0 11 5 11 10 0 6 -2 10 -4 10 -3 0 -8 -4 -11 -10z" fill="#858585"/>
<path d="M4890 1641 c0 -6 4 -12 8 -15 5 -3 9 1 9 9 0 8 -4 15 -9 15 -4 0 -8 -4 -8 -9z" fill="#858585"/>
<path d="M4902 1560 c0 -19 2 -27 5 -17 2 9 2 25 0 35 -3 9 -5 1 -5 -18z" fill="#858585"/>
<path d="M4750 1550 c-8 -5 -12 -12 -9 -15 4 -3 12 1 19 10 14 17 11 19 -10 5z" fill="#858585"/>
<path d="M4900 1446 c0 -45 4 -65 11 -61 6 4 8 28 4 63 -8 78 -15 78 -15 -2z" fill="#858585"/>
<path d="M4901 1324 c0 -11 3 -14 6 -6 3 7 2 16 -1 19 -3 4 -6 -2 -5 -13z" fill="#858585"/>
<path d="M4941 1314 c0 -11 3 -14 6 -6 3 7 2 16 -1 19 -3 4 -6 -2 -5 -13z" fill="#858585"/>
<path d="M4941 1274 c0 -11 3 -14 6 -6 3 7 2 16 -1 19 -3 4 -6 -2 -5 -13z" fill="#858585"/>
<path d="M4971 1250 c1 -8 5 -26 9 -40 l8 -25 1 25 c0 14 -4 32 -9 40 -9 13 -10 13 -9 0z" fill="#858585"/>
<path d="M4908 1220 c-4 -14 -6 -56 -4 -95 5 -92 5 -92 17 -75 8 11 12 12 16 3 12 -32 20 -7 18 55 -1 37 -6 66 -11 64 -5 -1 -7 -23 -6 -47 2 -27 0 -45 -7 -45 -6 0 -11 33 -13 83 -2 53 -5 73 -10 57z" fill="#858585"/>
<path d="M4942 1215 c0 -16 2 -22 5 -12 2 9 2 23 0 30 -3 6 -5 -1 -5 -18z" fill="#858585"/>
<path d="M4866 1164 c-3 -8 -2 -24 4 -34 7 -13 6 -19 -5 -24 -19 -7 -19 -16 3 -44 17 -22 17 -22 20 42 3 61 -9 94 -22 60z" fill="#858585"/>
<path d="M4770 1123 c0 -10 4 -14 8 -8 4 6 11 13 16 18 5 4 2 7 -7 7 -10 0 -17 -8 -17 -17z" fill="#858585"/>
<path d="M4860 1020 c0 -5 7 -10 16 -10 8 0 12 5 9 10 -3 6 -10 10 -16 10 -5 0 -9 -4 -9 -10z" fill="#858585"/>
<path d="M5161 5593 c-1 -24 1 -43 3 -43 8 0 12 48 5 66 -5 13 -8 7 -8 -23z" fill="#858585"/>
<path d="M5161 5004 c0 -11 3 -14 6 -6 3 7 2 16 -1 19 -3 4 -6 -2 -5 -13z" fill="#858585"/>
<path d="M5051 4414 c0 -11 3 -14 6 -6 3 7 2 16 -1 19 -3 4 -6 -2 -5 -13z" fill="#858585"/>
<path d="M5082 3488 c8 -20 -1 -31 -16 -19 -8 7 -10 -4 -7 -37 3 -26 6 -38 9 -27 5 24 22 45 22 27 0 -7 5 -12 10 -12 17 0 11 57 -7 71 -15 12 -16 12 -11 -3z" fill="#858585"/>
<path d="M6420 3630 c-9 -6 -10 -10 -3 -10 6 0 15 5 18 10 8 12 4 12 -15 0z" fill="#858585"/>
<path d="M3088 3613 c6 -2 18 -2 25 0 6 3 1 5 -13 5 -14 0 -19 -2 -12 -5z" fill="#858585"/>
<path d="M4088 3613 c6 -2 18 -2 25 0 6 3 1 5 -13 5 -14 0 -19 -2 -12 -5z" fill="#858585"/>
<path d="M4198 3603 c6 -2 18 -2 25 0 6 3 1 5 -13 5 -14 0 -19 -2 -12 -5z" fill="#858585"/>
<path d="M4268 3603 c12 -2 32 -2 45 0 12 2 2 4 -23 4 -25 0 -35 -2 -22 -4z" fill="#858585"/>
<path d="M5380 3259 c0 -5 5 -7 10 -4 6 3 10 8 10 11 0 2 -4 4 -10 4 -5 0 -10 -5 -10 -11z" fill="#858585"/>
<path d="M4952 3315 c0 -16 2 -22 5 -12 2 9 2 23 0 30 -3 6 -5 -1 -5 -18z" fill="#858585"/>
<path d="M4942 3161 c2 -14 9 -26 16 -29 17 -5 15 10 -3 34 -15 18 -15 18 -13 -5z" fill="#858585"/>
<path d="M5320 2835 c0 -11 5 -27 10 -35 8 -12 10 -12 10 5 0 11 -5 27 -10 35 -8 12 -10 12 -10 -5z" fill="#858585"/>
<path d="M5372 1970 c-1 -58 2 -98 7 -90 4 8 5 56 1 105 l-7 90 -1 -105z" fill="#858585"/>
<path d="M5310 1614 c0 -8 5 -12 10 -9 6 3 10 10 10 16 0 5 -4 9 -10 9 -5 0 -10 -7 -10 -16z" fill="#858585"/>
<path d="M4971 1734 c0 -11 3 -14 6 -6 3 7 2 16 -1 19 -3 4 -6 -2 -5 -13z" fill="#858585"/>
<path d="M8210 1700 c0 -11 5 -20 10 -20 6 0 10 9 10 20 0 11 -4 20 -10 20 -5 0 -10 -9 -10 -20z" fill="#858585"/>
<path d="M5968 923 c7 -3 16 -2 19 1 4 3 -2 6 -13 5 -11 0 -14 -3 -6 -6z" fill="#858585"/>
<path d="M6298 923 c7 -3 16 -2 19 1 4 3 -2 6 -13 5 -11 0 -14 -3 -6 -6z" fill="#858585"/>
<path d="M6375 920 c-3 -5 -1 -10 4 -10 6 0 11 5 11 10 0 6 -2 10 -4 10 -3 0 -8 -4 -11 -10z" fill="#858585"/>
<path d="M4780 905 l-65 -13 51 -1 c61 -1 114 8 114 20 0 11 -17 10 -100 -6z" fill="#858585"/>
<path d="M5398 913 c12 -2 32 -2 45 0 12 2 2 4 -23 4 -25 0 -35 -2 -22 -4z" fill="#858585"/>
<path d="M5478 913 c6 -2 18 -2 25 0 6 3 1 5 -13 5 -14 0 -19 -2 -12 -5z" fill="#858585"/>
<path d="M5858 913 c12 -2 30 -2 40 0 9 3 -1 5 -23 4 -22 0 -30 -2 -17 -4z" fill="#858585"/>
<path d="M6390 900 c-9 -6 -10 -10 -3 -10 6 0 15 5 18 10 8 12 4 12 -15 0z" fill="#858585"/>
<path d="M5467 893 c-3 -2 -46 -5 -96 -6 -50 -1 -87 -5 -82 -10 10 -10 186 -15 222 -7 23 6 23 6 -8 17 -17 6 -34 9 -36 6z" fill="#858585"/>
<path d="M6100 891 c0 -5 9 -7 20 -4 11 3 20 7 20 9 0 2 -9 4 -20 4 -11 0 -20 -4 -20 -9z" fill="#858585"/>
<path d="M6265 890 c-3 -5 -1 -10 4 -10 6 0 11 5 11 10 0 6 -2 10 -4 10 -3 0 -8 -4 -11 -10z" fill="#858585"/>
<path d="M7075 890 c-4 -6 11 -10 36 -10 48 0 49 4 2 13 -18 4 -35 2 -38 -3z" fill="#858585"/>
<path d="M7406 885 c-3 -8 -1 -15 4 -15 6 0 10 4 10 9 0 5 12 12 28 14 26 4 26 4 -4 6 -20 0 -34 -5 -38 -14z" fill="#858585"/>
<path d="M4356 881 c-6 -10 33 -23 46 -15 4 3 8 9 8 15 0 12 -47 12 -54 0z" fill="#858585"/>
<path d="M5605 880 c-3 -5 1 -10 9 -10 9 0 16 5 16 10 0 6 -4 10 -9 10 -6 0 -13 -4 -16 -10z" fill="#858585"/>
<path d="M5763 883 c-7 -3 -13 -9 -13 -15 0 -7 31 -8 91 -3 139 11 158 22 39 22 -58 0 -111 -2 -117 -4z" fill="#858585"/>
<path d="M6953 883 c15 -2 39 -2 55 0 15 2 2 4 -28 4 -30 0 -43 -2 -27 -4z" fill="#858585"/>
<path d="M3938 873 c7 -3 16 -2 19 1 4 3 -2 6 -13 5 -11 0 -14 -3 -6 -6z" fill="#858585"/>
<path d="M5548 863 c7 -3 16 -2 19 1 4 3 -2 6 -13 5 -11 0 -14 -3 -6 -6z" fill="#858585"/>
<path d="M6208 863 c6 -2 18 -2 25 0 6 3 1 5 -13 5 -14 0 -19 -2 -12 -5z" fill="#858585"/>
<path d="M6348 863 c6 -2 18 -2 25 0 6 3 1 5 -13 5 -14 0 -19 -2 -12 -5z" fill="#858585"/>
<path d="M4001 825 c-33 -38 -36 -45 -21 -45 11 0 47 37 61 63 17 30 -7 19 -40 -18z" fill="#858585"/>
<path d="M5445 851 c18 -8 17 -9 -10 -13 -16 -3 4 -5 45 -5 41 0 60 2 42 4 -18 2 -30 7 -28 11 2 4 -12 8 -32 9 -28 1 -32 0 -17 -6z" fill="#858585"/>
<path d="M5958 853 c7 -3 16 -2 19 1 4 3 -2 6 -13 5 -11 0 -14 -3 -6 -6z" fill="#858585"/>
<path d="M7193 833 c8 -7 77 -6 85 2 3 3 -16 5 -43 5 -27 0 -45 -3 -42 -7z" fill="#858585"/>
<path d="M5773 823 c-7 -2 -13 -8 -13 -13 0 -12 33 -5 38 8 4 12 -4 14 -25 5z" fill="#858585"/>
<path d="M5663 813 c15 -2 37 -2 50 0 12 2 0 4 -28 4 -27 0 -38 -2 -22 -4z" fill="#858585"/>
<path d="M7760 810 c0 -5 7 -7 15 -4 8 4 15 8 15 10 0 2 -7 4 -15 4 -8 0 -15 -4 -15 -10z" fill="#858585"/>
<path d="M3912 803 c-6 -2 -10 -8 -8 -12 3 -4 -10 -5 -28 -3 -27 3 -34 0 -39 -17 -3 -12 -1 -21 4 -21 5 0 9 4 9 9 0 4 18 8 41 8 37 0 58 13 59 36 0 8 -18 8 -38 0z" fill="#858585"/>
<path d="M5890 800 c11 -7 -9 -10 -65 -12 -74 -2 -76 -2 -20 -6 54 -3 152 5 143 12 -1 2 -19 6 -38 10 -25 4 -31 3 -20 -4z" fill="#858585"/>
<path d="M4009 769 c-21 -30 -21 -30 -1 -18 11 7 19 16 16 20 -2 4 4 12 13 18 10 6 13 11 6 11 -6 0 -22 -14 -34 -31z" fill="#858585"/>
<path d="M7809 774 c-12 -14 -11 -16 5 -13 11 2 21 10 24 17 5 17 -13 15 -29 -4z" fill="#858585"/>
<path d="M3488 763 c6 -2 18 -2 25 0 6 3 1 5 -13 5 -14 0 -19 -2 -12 -5z" fill="#858585"/>
<path d="M3578 763 c7 -3 16 -2 19 1 4 3 -2 6 -13 5 -11 0 -14 -3 -6 -6z" fill="#858585"/>
<path d="M5718 753 c7 -3 16 -2 19 1 4 3 -2 6 -13 5 -11 0 -14 -3 -6 -6z" fill="#858585"/>
<path d="M5773 753 c9 -2 25 -2 35 0 9 3 1 5 -18 5 -19 0 -27 -2 -17 -5z" fill="#858585"/>
<path d="M6043 753 c15 -2 39 -2 55 0 15 2 2 4 -28 4 -30 0 -43 -2 -27 -4z" fill="#858585"/>
<path d="M6158 753 c7 -3 16 -2 19 1 4 3 -2 6 -13 5 -11 0 -14 -3 -6 -6z" fill="#858585"/>
<path d="M6608 753 c7 -3 16 -2 19 1 4 3 -2 6 -13 5 -11 0 -14 -3 -6 -6z" fill="#858585"/>
<path d="M6648 748 c12 -11 51 -14 52 -3 0 6 -13 10 -29 10 -17 0 -27 -3 -23 -7z" fill="#858585"/>
<path d="M3158 743 c12 -2 30 -2 40 0 9 3 -1 5 -23 4 -22 0 -30 -2 -17 -4z" fill="#858585"/>
<path d="M6724 739 c-3 -5 -2 -9 3 -9 4 0 2 -4 -5 -9 -7 -4 29 -8 84 -9 53 -1 95 0 93 2 -10 10 -170 32 -175 25z" fill="#858585"/>
<path d="M5788 733 c12 -2 30 -2 40 0 9 3 -1 5 -23 4 -22 0 -30 -2 -17 -4z" fill="#858585"/>
<path d="M6256 731 c-3 -5 3 -11 14 -14 21 -5 32 1 24 14 -7 12 -31 11 -38 0z" fill="#858585"/>
<path d="M6480 729 c-14 -4 -20 -8 -15 -9 6 -1 19 -3 30 -5 11 -2 34 -7 50 -13 37 -11 148 -9 152 4 2 5 -33 9 -79 8 -52 -1 -89 3 -98 11 -9 7 -25 9 -40 4z" fill="#858585"/>
<path d="M6315 720 c-4 -6 6 -8 25 -6 42 5 51 16 12 16 -17 0 -34 -4 -37 -10z" fill="#858585"/>
<path d="M6940 719 c0 -5 5 -7 10 -4 6 3 10 8 10 11 0 2 -4 4 -10 4 -5 0 -10 -5 -10 -11z" fill="#858585"/>
<path d="M4439 718 c-9 -29 -5 -36 17 -34 33 4 43 16 13 17 -22 0 -23 1 -4 9 19 8 19 9 -2 9 -13 1 -23 0 -24 -1z" fill="#858585"/>
<path d="M5995 710 c-3 -5 1 -10 10 -10 9 0 13 5 10 10 -3 6 -8 10 -10 10 -2 0 -7 -4 -10 -10z" fill="#858585"/>
<path d="M4218 703 c7 -3 16 -2 19 1 4 3 -2 6 -13 5 -11 0 -14 -3 -6 -6z" fill="#858585"/>
<path d="M4529 696 c11 -14 291 -22 345 -10 60 13 1 20 -175 22 -144 1 -178 -2 -170 -12z" fill="#858585"/>
<path d="M4980 700 c0 -5 7 -7 15 -4 8 4 15 2 15 -2 0 -12 247 -17 325 -8 55 6 57 8 30 15 -41 12 -385 10 -385 -1z" fill="#858585"/>
<path d="M6258 683 c7 -3 16 -2 19 1 4 3 -2 6 -13 5 -11 0 -14 -3 -6 -6z" fill="#858585"/>
<path d="M5520 670 c0 -9 97 -7 106 3 3 3 -19 6 -50 6 -31 0 -56 -4 -56 -9z" fill="#858585"/>
<path d="M5650 670 c-10 -6 26 -7 100 -3 63 3 117 7 119 9 10 9 -205 3 -219 -6z" fill="#858585"/>
<path d="M5885 670 c3 -5 23 -10 43 -9 30 0 33 2 17 9 -28 12 -67 12 -60 0z" fill="#858585"/>
<path d="M6605 670 c-3 -5 1 -10 9 -10 8 0 18 5 21 10 3 6 -1 10 -9 10 -8 0 -18 -4 -21 -10z" fill="#858585"/>
<path d="M6838 673 c6 -2 18 -2 25 0 6 3 1 5 -13 5 -14 0 -19 -2 -12 -5z" fill="#858585"/>
<path d="M6950 670 c-13 -8 -13 -10 2 -10 9 0 20 5 23 10 8 13 -5 13 -25 0z" fill="#858585"/>
<path d="M7015 670 l-30 -8 33 -1 c17 0 32 4 32 9 0 6 -1 9 -2 9 -2 -1 -16 -5 -33 -9z" fill="#858585"/>
<path d="M7056 655 c-4 -11 1 -15 17 -15 17 0 19 2 8 9 -11 7 -10 10 5 14 17 4 17 5 -2 6 -12 0 -24 -6 -28 -14z" fill="#858585"/>
<path d="M5774 648 c-3 -4 18 -8 46 -8 30 0 49 4 45 9 -7 12 -84 10 -91 -1z" fill="#858585"/>
<path d="M5915 640 c27 -12 43 -12 25 0 -8 5 -22 9 -30 9 -10 0 -8 -3 5 -9z" fill="#858585"/>
<path d="M6648 643 c12 -2 30 -2 40 0 9 3 -1 5 -23 4 -22 0 -30 -2 -17 -4z" fill="#858585"/>
<path d="M6823 643 c9 -2 25 -2 35 0 9 3 1 5 -18 5 -19 0 -27 -2 -17 -5z" fill="#858585"/>
<path d="M3405 940 c-3 -5 -1 -10 4 -10 6 0 11 5 11 10 0 6 -2 10 -4 10 -3 0 -8 -4 -11 -10z" fill="#858585"/>
<path d="M3313 933 c15 -2 37 -2 50 0 12 2 0 4 -28 4 -27 0 -38 -2 -22 -4z" fill="#858585"/>
</g>
</svg>