<svg xmlns="http://www.w3.org/2000/svg" version="1.0" width="366.000000pt" height="282.000000pt" viewBox="0 0 366.000000 282.000000" preserveAspectRatio="xMidYMid meet">

<g transform="translate(0.000000,282.000000) scale(0.100000,-0.100000)" fill="#4759b2" stroke="none">
<path d="M2008 2724 c-186 -29 -357 -110 -523 -249 -204 -169 -361 -264 -509 -305 -100 -28 -230 -39 -469 -41 -103 -1 -184 -5 -180 -9 4 -4 49 -21 98 -38 50 -16 154 -53 232 -81 239 -85 285 -94 468 -95 268 0 383 43 650 244 160 120 238 164 340 190 169 43 365 9 509 -89 52 -35 128 -115 167 -174 133 -205 158 -531 61 -817 -105 -309 -316 -527 -592 -610 -100 -31 -294 -33 -385 -6 -180 55 -327 171 -401 317 -53 106 -68 190 -68 374 1 149 4 184 28 285 37 158 36 149 19 143 -26 -10 -109 -122 -147 -198 -41 -81 -87 -222 -107 -330 -19 -93 -18 -369 0 -460 38 -191 118 -342 242 -459 143 -134 308 -210 526 -242 195 -29 425 11 593 102 269 147 480 403 579 702 55 166 72 269 78 487 9 339 -31 548 -151 790 -162 326 -421 523 -751 570 -120 17 -191 17 -307 -1z" fill="#4759b2"/>
</g>
</svg>